<svg width="33" height="211" viewBox="0 0 33 211" fill="none" xmlns="http://www.w3.org/2000/svg">
<path d="M0 177.845L0 210.082H32.237V177.845H0Z" fill="#FE681B"/>
<mask id="mask0" mask-type="alpha" maskUnits="userSpaceOnUse" x="0" y="177" width="33" height="34">
<path d="M0 177.845L0 210.082H32.237V177.845H0Z" fill="#FE681B"/>
</mask>
<g mask="url(#mask0)">
<path d="M-0.460488 177.942L32.1035 210.506L32.6462 209.964L0.0822458 177.4L-0.460488 177.942Z" fill="#FFB667"/>
</g>
<path d="M4.45155 202.406H4.14453V197.494H4.3748V197.801C4.3748 198.108 4.45155 198.262 4.52831 198.415C4.60506 198.492 4.68182 198.645 4.83532 198.722C4.91208 198.799 5.2191 198.799 5.67963 198.799H10.2849C11.1292 198.799 11.82 198.876 12.2038 199.029C12.5876 199.183 12.9713 199.49 13.2016 199.95C13.4319 200.411 13.5854 200.948 13.5854 201.562C13.5854 202.33 13.3551 202.944 12.9713 203.404C12.5876 203.865 12.127 204.095 11.5897 204.095C11.2827 204.095 11.0525 204.018 10.8222 203.788C10.5919 203.558 10.5152 203.327 10.5152 203.097C10.5152 202.79 10.5919 202.56 10.7454 202.406C10.899 202.253 11.1292 202.099 11.3595 202.099C11.513 202.099 11.5898 202.099 11.6665 202.176C11.7433 202.176 11.82 202.253 11.9735 202.406C12.127 202.56 12.2805 202.56 12.3573 202.56C12.5108 202.56 12.5876 202.483 12.6643 202.406C12.8178 202.253 12.8178 202.023 12.8178 201.716C12.8178 201.485 12.7411 201.332 12.6643 201.255C12.5876 201.102 12.4341 201.025 12.2038 201.025C11.9735 201.025 11.4362 200.948 10.4384 200.948H5.75638C5.29585 200.948 4.98883 200.948 4.91208 201.025C4.83532 201.102 4.68182 201.178 4.60506 201.332C4.52831 201.485 4.45155 201.716 4.45155 201.946V202.406Z" fill="#FFB667"/>
<path d="M18.1906 184.753H21.4143V184.983C20.57 185.213 19.956 185.52 19.4955 186.058C19.0349 186.595 18.8047 187.209 18.8047 187.9C18.8047 188.437 18.9582 188.974 19.2652 189.512C19.5722 189.972 20.0327 190.356 20.57 190.586C21.2608 190.893 22.0284 191.047 22.8727 191.047C23.717 191.047 24.4078 190.97 25.0986 190.74C25.7893 190.509 26.2499 190.202 26.6336 189.742C27.0174 189.281 27.1709 188.744 27.1709 188.053C27.1709 187.439 27.0174 186.979 26.7872 186.441C26.5569 185.981 26.0964 185.444 25.4823 184.906H26.2499C26.7872 185.444 27.1709 185.981 27.4012 186.518C27.6315 187.055 27.785 187.746 27.785 188.437C27.785 189.435 27.5547 190.279 27.1709 191.047C26.7872 191.814 26.2499 192.428 25.4823 192.812C24.7148 193.196 23.9472 193.426 23.1029 193.426C22.2586 193.426 21.4143 193.196 20.57 192.735C19.8025 192.275 19.1884 191.661 18.7279 190.893C18.2674 190.126 18.1139 189.281 18.1139 188.437C18.1139 187.823 18.2674 187.132 18.4976 186.365C18.6511 185.981 18.7279 185.674 18.7279 185.597C18.7279 185.444 18.6511 185.29 18.5744 185.213C18.4976 185.137 18.2674 185.06 18.0371 184.983V184.753H18.1906Z" fill="#FFB667"/>
<g opacity="0.7">
<path d="M6.45836 165.56H5.38379L5.38379 157.27H6.3816V157.654C6.3816 158.882 7.0724 159.573 8.37723 159.573H19.8137C22.4234 159.573 24.419 160.34 25.9541 161.876C27.0287 162.95 27.5659 164.332 27.5659 166.097C27.5659 167.939 27.0287 168.937 26.0308 168.937C25.5703 168.937 25.1865 168.707 24.8795 168.323C24.5725 167.939 24.419 167.555 24.419 167.095C24.419 166.711 24.4957 166.404 24.726 166.174C24.8028 166.097 25.033 165.867 25.4168 165.406C25.8006 165.023 25.9541 164.715 25.9541 164.485C25.9541 163.641 25.1098 163.18 23.4212 163.18H8.37723C7.0724 163.18 6.45836 163.794 6.45836 165.099V165.56Z" fill="white"/>
<path d="M19.7368 146.141L20.3508 145.757C20.7346 146.141 21.1183 146.601 21.4254 147.139C21.7324 147.676 21.8859 148.213 21.8859 148.674C21.8859 149.672 21.3486 150.286 20.274 150.516C20.8881 151.13 21.2719 151.667 21.4254 151.974C21.7324 152.512 21.8859 153.049 21.8859 153.74C21.8859 154.661 21.6556 155.351 21.1951 155.889C20.7346 156.503 20.0438 156.733 19.1227 156.733C18.2784 156.733 17.5876 156.503 17.0503 155.966C16.6666 155.582 16.2828 154.737 15.8223 153.509C15.4385 152.281 14.978 151.283 14.3639 150.593H13.3661C12.9056 150.593 12.445 150.746 12.138 151.053C11.9078 151.36 11.7543 151.744 11.7543 152.205C11.7543 153.126 12.2148 153.586 13.2126 153.586C13.3661 153.586 13.5196 153.586 13.7499 153.586L14.7477 156.503C14.4407 156.58 14.1337 156.58 13.8266 156.58C13.2126 156.58 12.6753 156.349 12.2148 155.889C11.831 155.505 11.4472 154.814 11.1402 153.97C10.8332 153.126 10.6797 152.358 10.6797 151.667C10.6797 150.209 11.1402 149.058 12.0613 148.137C12.5218 147.676 13.1358 147.446 13.9034 147.446H18.8157C19.5832 147.446 20.0438 147.292 20.0438 146.908C20.0438 146.601 19.8903 146.371 19.7368 146.141ZM19.353 150.593H15.592C15.8223 150.823 16.0525 151.207 16.2828 151.59C16.5898 152.281 16.8201 152.665 16.8201 152.665C17.2038 153.279 17.8179 153.586 18.6622 153.586C19.1227 153.586 19.5065 153.509 19.8903 153.279C20.274 153.049 20.5043 152.742 20.5043 152.281C20.4276 151.898 20.1205 151.36 19.353 150.593Z" fill="white"/>
<path d="M15.2086 133.323H19.2766C19.8139 133.323 20.2744 133.246 20.5047 133.016C20.735 132.785 20.8117 132.402 20.8117 131.864H21.656V138.005H20.8117C20.7349 137.314 20.4279 136.93 19.7371 136.7C19.3534 136.546 18.7393 136.546 17.895 136.546H15.5924C13.6735 136.546 12.6757 137.084 12.6757 138.158C12.6757 138.926 13.0595 139.847 13.827 140.921H19.1231C20.2744 140.921 20.8117 140.384 20.8117 139.386V139.156H21.656V145.757H20.8117V145.603C20.8117 144.989 20.6582 144.606 20.3512 144.375C20.0442 144.222 19.6604 144.068 19.0463 144.068H13.9805C13.4432 144.068 13.0595 144.452 12.8292 145.296L12.6757 145.834H11.9081L10.373 141.382V140.921H12.6757C11.2941 138.849 10.6033 137.237 10.6033 136.086C10.6033 134.858 11.2174 134.013 12.5222 133.63C13.2897 133.399 14.134 133.323 15.2086 133.323Z" fill="white"/>
<path d="M21.8857 130.867L18.5852 131.174V130.329C19.1993 130.099 19.7366 129.792 20.1971 129.331C20.6576 128.794 20.8879 128.257 20.8879 127.643C20.8879 127.259 20.8111 126.952 20.5809 126.722C20.3506 126.415 20.0436 126.338 19.7366 126.338C19.3528 126.338 18.8923 126.645 18.4317 127.259C18.4317 127.336 18.1247 127.796 17.5107 128.717C16.9734 129.562 16.5129 130.099 16.1291 130.483C15.5151 131.02 14.901 131.25 14.1335 131.25C13.0589 131.25 12.2146 130.79 11.6006 129.945C11.0633 129.178 10.833 128.257 10.833 127.106C10.833 126.108 10.9865 125.11 11.3703 124.189L14.1335 124.112V124.956C12.6751 125.417 11.9076 126.261 11.9076 127.413C11.9076 128.18 12.2146 128.641 12.9054 128.641C13.4427 128.641 13.8264 128.334 14.287 127.796L15.1313 126.261C15.6686 125.34 16.1291 124.726 16.5129 124.342C17.1269 123.805 17.8177 123.498 18.662 123.498C19.9668 123.498 20.9646 124.035 21.5019 125.11C21.8089 125.647 21.8857 126.261 21.8857 126.875C21.8857 127.72 21.8089 128.41 21.6554 129.178C21.5787 129.408 21.5787 129.638 21.5787 129.638C21.5787 129.792 21.6554 129.945 21.8857 130.176V130.867Z" fill="white"/>
<path d="M16.4363 122.347C14.2104 122.347 12.5218 121.272 11.4472 119.123C10.91 118.125 10.6797 117.051 10.6797 115.823C10.6797 114.057 11.217 112.522 12.2148 111.371C13.2126 110.219 14.5174 109.605 16.1293 109.605C18.4319 109.605 20.1205 110.68 21.1951 112.829C21.7324 113.827 21.9626 114.978 21.9626 116.206C21.9626 118.662 21.0416 120.505 19.2762 121.579C18.4319 122.116 17.5109 122.347 16.4363 122.347ZM14.9012 118.893C16.206 118.893 17.5109 118.662 18.5854 118.125C20.0438 117.511 20.7346 116.59 20.7346 115.439C20.7346 113.827 19.66 113.059 17.5109 113.059C15.8223 113.059 14.4407 113.366 13.3661 113.98C12.2915 114.594 11.7543 115.439 11.7543 116.437C11.831 118.125 12.8288 118.893 14.9012 118.893Z" fill="white"/>
<path d="M15.2086 96.5572H19.2766C19.8139 96.5572 20.2744 96.4804 20.5047 96.2502C20.735 96.0199 20.8117 95.6361 20.8117 95.0989H21.656V101.239H20.8117C20.7349 100.548 20.4279 100.165 19.7371 99.9344C19.3534 99.7809 18.7393 99.7809 17.895 99.7809H15.5924C13.6735 99.7809 12.6757 100.318 12.6757 101.393C12.6757 102.16 13.0595 103.081 13.827 104.156H19.1231C20.2744 104.156 20.8117 103.619 20.8117 102.621V102.391H21.656V108.991H20.8117V108.838C20.8117 108.224 20.6582 107.84 20.3512 107.61C20.0442 107.456 19.6604 107.303 19.0463 107.303H13.9805C13.4432 107.303 13.0595 107.687 12.8292 108.531L12.6757 109.068H11.9081L10.373 104.616V104.156H12.6757C11.2941 102.084 10.6033 100.472 10.6033 99.3204C10.6033 98.0923 11.2174 97.248 12.5222 96.8642C13.2897 96.7107 14.134 96.5572 15.2086 96.5572Z" fill="white"/>
<path d="M21.8857 94.1779L18.5852 94.4849V93.6406C19.1993 93.4103 19.7366 93.1033 20.1971 92.6428C20.6576 92.1055 20.8879 91.5682 20.8879 90.9542C20.8879 90.5704 20.8111 90.2634 20.5809 90.0331C20.3506 89.7261 20.0436 89.6493 19.7366 89.6493C19.3528 89.6493 18.8923 89.9564 18.4317 90.5704C18.4317 90.6472 18.1247 91.1077 17.5107 92.0287C16.9734 92.873 16.5129 93.4103 16.1291 93.7941C15.5151 94.3314 14.901 94.5616 14.1335 94.5616C13.0589 94.5616 12.2146 94.1011 11.6006 93.2568C11.0633 92.4893 10.833 91.5682 10.833 90.4169C10.833 89.4191 10.9865 88.4213 11.3703 87.5002L14.1335 87.4234V88.2678C12.6751 88.7283 11.9076 89.5726 11.9076 90.7239C11.9076 91.4915 12.2146 91.952 12.9054 91.952C13.4427 91.952 13.8264 91.645 14.287 91.1077L15.1313 89.5726C15.6686 88.6515 16.1291 88.0375 16.5129 87.6537C17.1269 87.1164 17.8177 86.8094 18.662 86.8094C19.9668 86.8094 20.9646 87.3467 21.5019 88.4213C21.8089 88.9585 21.8857 89.5726 21.8857 90.1866C21.8857 91.0309 21.8089 91.7217 21.6554 92.4893C21.5787 92.7195 21.5787 92.9498 21.5787 92.9498C21.5787 93.1033 21.6554 93.2568 21.8857 93.4871V94.1779Z" fill="white"/>
<path d="M16.9738 64.09V63.0154C18.5089 63.2457 20.1207 63.7062 21.7326 64.4738C21.579 64.8575 21.579 65.3948 21.579 66.0089C21.579 66.3159 21.6558 67.0067 21.8093 68.0045C21.9628 69.0023 22.0396 69.8466 22.0396 70.4606C22.0396 72.1493 21.6558 73.6843 20.965 75.1427C20.1975 76.6778 19.1996 77.8291 17.8181 78.7502C16.5132 79.5945 15.1316 79.9782 13.5198 79.9782C11.1404 79.9782 9.14476 78.9804 7.45615 77.0616C5.76755 75.1427 5 72.7633 5 69.9234C5 68.772 5.15351 67.6975 5.46053 66.7764C5.8443 65.5483 6.07457 64.9343 6.07457 64.9343C6.07457 64.704 5.99781 64.5505 5.8443 64.397V63.783L10.3728 63.5527V64.5505C8.60748 65.0878 7.45615 66.0856 6.84212 67.4672C6.5351 68.158 6.38159 68.9255 6.38159 69.7698C6.38159 71.612 6.99563 73.1471 8.30046 74.2984C9.60529 75.4497 11.2939 76.0637 13.2895 76.0637C14.5944 76.0637 15.8224 75.7567 16.9738 75.2194C18.1251 74.6054 19.1229 73.8379 19.7369 72.7633C20.4277 71.7655 20.7347 70.6142 20.7347 69.4628C20.7347 68.2348 20.351 67.1602 19.6602 66.1624C19.0461 65.3181 18.1251 64.6273 16.9738 64.09Z" fill="white"/>
<path d="M19.7369 51.4256L20.351 51.0418C20.7348 51.4256 21.1185 51.8861 21.4256 52.4234C21.7326 53.0374 21.9628 53.5747 21.9628 54.0353C21.9628 55.0331 21.4256 55.6471 20.351 55.8774C20.965 56.4914 21.3488 57.0287 21.5023 57.3357C21.8093 57.873 21.9628 58.4103 21.9628 59.1011C21.9628 60.0221 21.7326 60.7129 21.272 61.2502C20.8115 61.8643 20.1207 62.0945 19.1997 62.0945C18.3554 62.0945 17.6646 61.8642 17.1273 61.327C16.7435 60.9432 16.3597 60.0989 15.8992 58.8708C15.5154 57.6427 15.0549 56.6449 14.4409 55.9541H13.4431C12.9825 55.9541 12.522 56.1076 12.215 56.4147C11.908 56.7217 11.6777 57.1055 11.6777 57.566C11.6777 58.487 12.1382 58.9476 13.136 58.9476C13.2895 58.9476 13.4431 58.9476 13.6733 58.9476L14.6711 61.8642C14.3641 61.941 14.0571 61.941 13.7501 61.941C13.136 61.941 12.5987 61.7107 12.1382 61.2502C11.6777 60.7897 11.2939 60.1756 10.9869 59.2546C10.6799 58.4103 10.5264 57.6427 10.5264 56.9519C10.5264 55.4936 10.9869 54.3423 11.908 53.4212C12.3685 52.9607 12.9825 52.7304 13.7501 52.7304H18.8159C19.5834 52.7304 20.044 52.5769 20.044 52.1931C20.044 51.9629 19.8905 51.6559 19.7369 51.4256ZM19.3532 55.8774H15.5922C15.8225 56.1076 16.0527 56.4914 16.283 56.8752C16.59 57.566 16.8203 57.9498 16.8203 57.9498C17.204 58.5638 17.8181 58.8708 18.6624 58.8708C19.1229 58.8708 19.5067 58.7941 19.8905 58.5638C20.2742 58.3335 20.5045 58.0265 20.5045 57.566C20.4277 57.1822 20.1207 56.6449 19.3532 55.8774Z" fill="white"/>
<path d="M20.8111 43.7498H21.6554V50.9647H20.8111V50.8112C20.8111 50.1972 20.6576 49.8134 20.3506 49.5832C20.1203 49.4296 19.6598 49.3529 19.0458 49.3529H14.8242C14.287 49.3529 13.9032 49.4297 13.7497 49.5064C13.4427 49.6599 13.2891 49.8902 13.0589 50.3507L12.7519 51.0415H12.0611L10.4492 46.7432V46.2059L13.3659 46.1292C12.7519 45.8222 12.2913 45.5919 12.1378 45.4384C11.6005 45.1314 11.2168 44.8244 10.9865 44.5941C10.833 44.3638 10.7562 44.1336 10.7562 43.8265C10.7562 43.5963 10.7562 43.4428 10.833 43.2893L11.6005 41.2169C12.7519 41.5239 13.6729 41.9844 14.3637 42.445C13.9032 43.5963 13.6729 44.2871 13.6729 44.5941C13.6729 45.0546 14.0567 45.5919 14.8242 46.1292H19.0458C19.6598 46.1292 20.1203 45.9757 20.4273 45.7454C20.6576 45.5151 20.8111 45.0546 20.8111 44.3638V43.7498Z" fill="white"/>
<path d="M21.5787 36.9186H24.3418C25.4932 36.9186 26.184 36.6116 26.4142 35.9976C26.5677 35.6138 26.6445 35.0765 26.7212 34.3857H27.5655V41.8309H26.7212V41.5239C26.7212 40.6028 26.184 40.1423 25.0326 40.1423H14.0567C13.3659 40.1423 12.9821 40.3726 12.8286 40.8331L12.5216 41.7542H11.8308L10.4492 37.6094V36.9186H12.9821C12.3681 36.1511 12.0611 35.6905 11.9076 35.537C11.5238 34.9998 11.2168 34.5392 11.0633 34.0019C10.9097 33.5414 10.7562 33.0041 10.7562 32.5436C10.7562 30.855 11.6005 29.6269 13.2124 28.8594C13.9799 28.4756 14.8242 28.3221 15.7453 28.3221C18.0479 28.3221 19.8901 29.2431 21.1181 31.0085C21.7322 31.9296 22.0392 33.0041 22.0392 34.2322C21.9624 34.9997 21.8089 35.9208 21.5787 36.9186ZM13.9799 36.9186H19.6598C20.5041 36.0743 20.9646 35.23 20.9646 34.2322C20.9646 33.3111 20.5041 32.6203 19.6598 32.1598C18.969 31.776 18.1247 31.5458 17.1269 31.5458C16.0523 31.5458 15.0545 31.776 14.2102 32.1598C13.1356 32.6971 12.5984 33.4647 12.5984 34.3857C12.6751 35.0765 13.1356 35.9208 13.9799 36.9186Z" fill="white"/>
<path d="M18.1255 17.3463L18.586 16.7323C19.5071 17.423 20.3514 18.1906 20.8887 19.1116C21.5795 20.1862 21.8865 21.184 21.8865 22.2586C21.8865 24.1775 21.0422 25.5591 19.2768 26.4034C18.4325 26.7871 17.5115 27.0174 16.5136 27.0174C14.1342 27.0174 12.4456 26.0963 11.3711 24.331C10.9105 23.4867 10.6035 22.4889 10.6035 21.4143C10.6035 20.0327 10.9873 18.9581 11.8316 18.1138C12.4456 17.4998 13.1364 17.116 13.9807 16.9625C14.3645 16.8858 14.5948 16.809 14.7483 16.809C15.0553 16.7322 15.2088 16.5787 15.2856 16.3485H16.0531V23.5634C16.9742 23.4867 17.8185 23.1797 18.586 22.6424C19.4303 22.0283 19.8909 21.2608 19.8909 20.4165C19.9676 19.6489 19.3536 18.5744 18.1255 17.3463ZM15.1321 23.8704V20.1862C12.9829 20.1862 11.9083 20.877 11.9083 22.0283C11.9083 22.7959 12.4456 23.4099 13.5202 23.7169C13.904 23.8704 14.2877 23.8704 14.6715 23.8704C14.825 23.8704 14.9785 23.8704 15.1321 23.8704Z" fill="white"/>
<path d="M12.4453 11.5131H18.7392C19.6603 11.5131 20.1208 11.1293 20.1208 10.285C20.1208 9.67099 19.6603 9.05694 18.816 8.28939L19.5068 7.90562C20.1976 8.28939 20.7348 8.82668 21.1954 9.51748C21.6559 10.2083 21.8862 10.9758 21.8862 11.7434C21.8862 13.739 20.8116 14.66 18.6625 14.66H12.3686V16.0416H11.7545C11.4475 15.2741 10.9102 14.5065 10.0659 13.739C9.29837 12.9714 8.45407 12.4341 7.68652 12.2039V11.4363H10.987V8.05912L12.4453 8.44289V11.5131Z" fill="white"/>
<path d="M21.8857 7.36847L18.5852 7.67548V6.8312C19.1993 6.60093 19.7366 6.2939 20.1971 5.83337C20.6576 5.29609 20.8879 4.75882 20.8879 4.14478C20.8879 3.76101 20.8111 3.45398 20.5809 3.22371C20.3506 2.91669 20.0436 2.83994 19.7366 2.83994C19.3528 2.83994 18.8923 3.14697 18.4317 3.76101C18.4317 3.83776 18.1247 4.29829 17.5107 5.21934C16.9734 6.06365 16.5129 6.60092 16.1291 6.98469C15.5151 7.52198 14.901 7.75224 14.1335 7.75224C13.0589 7.75224 12.2146 7.29173 11.6006 6.44742C11.0633 5.67988 10.833 4.75881 10.833 3.60749C10.833 2.60967 10.9865 1.61187 11.3703 0.690813L14.1335 0.614053V1.45836C12.6751 1.91889 11.9076 2.76318 11.9076 3.9145C11.9076 4.68205 12.2146 5.14258 12.9054 5.14258C13.4427 5.14258 13.8264 4.83556 14.287 4.29828L15.1313 2.76318C15.6686 1.84212 16.1291 1.22808 16.5129 0.844308C17.1269 0.307024 17.8177 4.76837e-07 18.662 4.76837e-07C19.9668 4.76837e-07 20.9646 0.537289 21.5019 1.61186C21.8089 2.14914 21.8857 2.76319 21.8857 3.37723C21.8857 4.22153 21.8089 4.91233 21.6554 5.67988C21.5787 5.91014 21.5787 6.14039 21.5787 6.14039C21.5787 6.2939 21.6554 6.44742 21.8857 6.67768V7.36847Z" fill="white"/>
</g>
</svg>
