<svg width="90" height="90" viewBox="0 0 90 90" fill="none" xmlns="http://www.w3.org/2000/svg">
<rect x="1" y="1" width="88" height="88" rx="7" stroke="#FE681B" stroke-width="2"/>
<path d="M66.3592 58.8496C63.6322 65.4149 59.3066 70.2876 52.5618 72.8094C52.7071 72.8094 52.8439 72.8094 52.9893 72.8094C57.5627 72.8094 62.1362 72.8094 66.7097 72.8094C66.9918 72.8094 67.2824 72.8094 67.556 72.8949C68.0946 73.0487 68.4023 73.4933 68.3596 74.0489C68.3254 74.6046 67.915 75.0576 67.3765 75.1175C67.0773 75.1517 66.7781 75.126 66.4789 75.126C51.4505 75.126 36.4221 75.126 21.3938 75.126C21.1202 75.126 20.8552 75.1431 20.5817 75.1175C19.9918 75.0662 19.5558 74.6046 19.5216 74.0233C19.4874 73.4762 19.8721 72.9633 20.4363 72.8436C20.6415 72.8008 20.8638 72.8008 21.0689 72.8008C25.3261 72.8008 29.5833 72.8008 33.849 72.7923C33.9773 72.7923 34.1568 72.8692 34.2423 72.7239C34.3534 72.5273 34.3021 72.3734 34.0542 72.2708C33.1908 71.9032 32.3274 71.5271 31.5067 71.0826C27.2153 68.7745 24.1806 65.2866 22.0435 60.9611C20.2483 57.3279 19.2139 53.4725 18.6155 49.4804C18.171 46.6251 18.0085 43.7443 18 40.8549C18 39.9744 18 39.9744 18.872 39.9744C35.1997 39.9829 51.5189 39.9829 67.8466 39.9915C68.1886 39.9915 68.5305 39.9744 68.8725 39.9829C69.3854 39.9915 69.4623 40.0598 69.4623 40.5899C69.4538 41.3165 69.4281 42.0431 69.411 42.7697C69.3597 44.6333 69.2401 46.4969 68.9922 48.3434C68.8981 49.0615 69.0776 49.2154 69.7615 48.9674C71.5482 48.3178 73.3348 48.1724 75.1215 48.9674C77.8485 50.1813 79.5582 52.8399 79.3017 55.7465C78.9854 59.3283 76.7115 61.9784 72.6851 62.2348C70.2061 62.3972 68.3339 61.2774 66.8294 59.4052C66.6755 59.2257 66.5387 59.0718 66.3592 58.8496ZM43.7654 42.3081C37.8156 42.3081 31.8572 42.3081 25.9074 42.3081C24.3687 42.3081 22.8299 42.291 21.2912 42.2996C20.5389 42.2996 20.3594 42.5047 20.385 43.2399C20.462 45.6335 20.6842 48.01 21.086 50.3694C21.7015 53.9684 22.7188 57.4391 24.4456 60.6619C26.9674 65.355 30.6519 68.7232 35.7639 70.3474C40.2177 71.7579 44.7655 71.9203 49.339 70.9714C52.9038 70.2277 56.1009 68.7146 58.7852 66.2099C61.2643 63.8932 62.9825 61.0637 64.2477 57.9434C66.154 53.2417 66.8379 48.3007 67.0516 43.2656C67.0858 42.4278 66.9491 42.3081 66.1027 42.3081C58.6655 42.3081 51.2197 42.3081 43.7654 42.3081ZM76.9509 55.4729C77.0534 52.9853 75.0787 50.8738 72.574 50.7712C70.112 50.6686 67.9492 52.6604 67.8552 55.0882C67.7526 57.6186 69.676 59.7728 72.138 59.884C74.7453 60.0122 76.8397 58.0888 76.9509 55.4729Z" fill="black"/>
<path d="M45.6375 18.9876C45.6204 21.2103 45.193 23.1679 44.8168 25.1426C44.4663 26.9976 44.0304 28.8441 44.0133 30.7504C44.0047 31.5198 44.15 32.2379 44.6202 32.8876C45.0134 33.4261 44.9023 33.9818 44.3979 34.4007C43.9278 34.7939 43.3208 34.7768 42.8507 34.3237C42.0215 33.5202 41.7564 32.4858 41.6881 31.383C41.5769 29.5878 41.9018 27.8354 42.2352 26.0915C42.6199 24.0826 43.0986 22.0822 43.2695 20.0391C43.3294 19.3894 43.3721 18.7312 43.2353 18.0815C43.1499 17.6712 42.9703 17.3036 42.731 16.9616C42.3719 16.4487 42.4232 15.876 42.8592 15.4656C43.2952 15.0553 43.9021 15.0211 44.3809 15.3972C44.8083 15.7306 45.0733 16.1837 45.2699 16.6795C45.5947 17.4831 45.6802 18.3294 45.6375 18.9876Z" fill="black"/>
<path d="M51.4249 23.8944C51.3308 25.7067 50.9205 26.9035 50.5358 28.1089C50.2366 29.0407 49.8861 29.9639 49.7921 30.947C49.7237 31.6565 49.9032 32.2977 50.3307 32.8704C50.6982 33.3577 50.664 33.8535 50.2537 34.2895C49.8348 34.7255 49.2022 34.828 48.7492 34.4434C47.9285 33.7424 47.407 32.8619 47.407 31.7506C47.4156 30.2204 47.8174 28.7757 48.3046 27.3395C48.5867 26.5188 48.8518 25.6896 48.9885 24.8348C49.1082 24.0996 49.0056 23.4243 48.544 22.8173C48.0738 22.1847 48.1251 21.612 48.6551 21.1589C49.1595 20.7315 49.7921 20.7913 50.3221 21.347C51.1599 22.2018 51.4505 23.2618 51.4249 23.8944Z" fill="black"/>
<path d="M39.9099 24.1424C39.9099 25.5017 39.5167 26.6472 39.1577 27.8012C38.8414 28.8185 38.4652 29.8187 38.3114 30.8787C38.2088 31.5711 38.3712 32.2037 38.7901 32.7679C39.2432 33.3749 39.209 33.9391 38.6875 34.3922C38.1831 34.8281 37.5078 34.7683 37.012 34.2383C35.9947 33.1612 35.8066 31.8618 36.0033 30.4684C36.1999 29.0066 36.7726 27.6473 37.1915 26.2454C37.3283 25.7838 37.448 25.3136 37.5334 24.8349C37.6617 24.0826 37.5334 23.4073 37.0718 22.7747C36.6444 22.1934 36.6957 21.5608 37.1659 21.159C37.6702 20.7316 38.3199 20.7743 38.8499 21.3043C39.6449 22.1335 39.9441 23.1422 39.9099 24.1424Z" fill="black"/>
<path d="M44.0175 58C48.8698 58 53.7221 58 58.5822 58C59.0847 58 59.0769 58 58.857 58.4385C56.5094 63.0784 52.772 65.789 47.7313 66.658C44.151 67.2719 40.6099 67.0965 37.1788 65.8289C33.5199 64.4736 30.8897 61.9224 29.1309 58.4146C28.9268 58.008 28.9268 58 29.3822 58C34.258 58 39.1417 58 44.0175 58Z" fill="#FE681B"/>
</svg>
