<?xml version="1.0" encoding="utf-8"?>
<!-- Generator: Adobe Illustrator 23.0.5, SVG Export Plug-In . SVG Version: 6.00 Build 0)  -->
<svg version="1.1" id="Layer_1" xmlns="http://www.w3.org/2000/svg" xmlns:xlink="http://www.w3.org/1999/xlink" x="0px" y="0px"
	 width="65px" height="58px" viewBox="0 0 65 58" style="enable-background:new 0 0 65 58;" xml:space="preserve">
<style type="text/css">
	.st0{fill:#FFFFFF;}
</style>
<path class="st0" d="M18.2,27.6c0-2.3,0.7-4.4,2.4-6c0.8-0.8,1.8-1.4,2.7-2.1c6.3-4.7,12.7-9.4,19.1-14.1c1.7-1.3,3.4-2.6,5.2-3.9
	c2.6-1.9,5.4-1.9,8.2-0.4c1.8,0.9,3.3,2.3,4.6,3.8c1.6,1.8,3,3.8,3.8,6.1c0.5,1.3,0.8,2.7,0.8,4.1c-0.1,2-0.9,3.7-2.5,5
	c-5.2,3.8-10.4,7.7-15.6,11.5c-3.5,2.5-6.9,5.1-10.3,7.7c-1.2,0.9-2.6,1.4-4.1,1.3c-1.3-0.1-2.4-0.6-3.5-1.2
	c-1.2-0.8-2.3-1.7-3.1-2.8c-0.1-0.2-0.2-0.2-0.4-0.1c-0.5,0.4-1,0.7-1.5,1.1c-0.8,0.6-1.5,0.5-2.1-0.3c-1.8-2.3-3-4.9-3.5-7.8
	C18.2,28.8,18.2,28.2,18.2,27.6z M57.2,20.8c-0.6-0.2-1.2-0.5-1.7-0.8c-2.5-1.6-4.4-3.8-5.7-6.5c-0.8-1.6-1-3.2-0.7-4.9
	c0.4-2.5,3.8-5.2,7-2.9c2.2,1.6,3.8,3.8,4.7,6.4c0.4,1.1,0.5,2.3,0,3.4s-1.5,1.7-2.7,1.5c-0.6-0.1-1-0.4-1.5-0.7
	c-1.3-0.9-2.2-2.2-3.1-3.5c-0.3-0.5-0.5-1.1-0.6-1.7c-0.1-0.7,0.2-1.4,0.8-1.8C54,9,54.6,9.1,55,9.4c0.4,0.4,0.5,0.9,0.3,1.4
	c-0.1,0.1-0.1,0.2,0,0.3c0.7,1.3,1.6,2.3,2.7,3.3c0.2,0.2,0.3,0.1,0.3-0.1c0.1-0.5,0-1-0.1-1.5c-0.5-1.6-1.5-2.9-2.6-4.1
	c-0.5-0.5-0.9-0.9-1.5-1.2c-0.7-0.3-1.4-0.2-1.9,0.4c-0.3,0.3-0.6,0.7-0.7,1.1c-0.2,0.8-0.1,1.7,0.2,2.4c0.7,2,1.9,3.6,3.4,5.1
	c0.8,0.7,1.6,1.4,2.7,1.8c1.5,0.6,2.9,0.3,3.8-0.8c0.6-0.7,0.9-1.6,0.9-2.6c0-1.1-0.3-2.1-0.6-3.1C61,9.5,59.6,7.6,58,5.9
	c-1.1-1.2-2.3-2.2-3.7-2.8c-1.9-0.8-3.7-0.8-5.4,0.6c-1.2,1.1-1.7,2.5-1.8,4c-0.1,1.4,0.3,2.7,0.7,4c0.6,1.6,1.4,3.1,2.4,4.5
	c0.2,0.3,0.4,0.5,0.4,0.9c0.1,0.6-0.3,0.9-0.7,1.3c-1.7,1.3-3.4,2.5-5.1,3.8c-1.4,1-2.7,2-4.1,3c1,1,2.1,1.8,3.4,2.3
	c1.8,0.7,3.5,0.5,5-0.7c2.5-1.9,5.1-3.8,7.7-5.7C56.9,21.1,57.1,21,57.2,20.8z M30.1,17.7c-0.1,0-0.1,0.1-0.1,0.1
	c-2.5,1.8-5,3.6-7.4,5.4c-0.6,0.4-1,0.9-1.3,1.6c-0.4,0.9-0.6,1.8-0.6,2.8c0,1.1,0.2,2.1,0.5,3.2c0.4,1.5,1.2,2.8,1.9,4.1
	c0.1,0.2,0.2,0.2,0.4,0.1c3.4-2.6,6.9-5.1,10.3-7.7c0.2-0.2,0.2-0.2,0.1-0.5C31.7,24.1,30.2,21.2,30.1,17.7z M44.6,7
	c-0.1,0-0.2,0.1-0.3,0.1c-2.5,1.8-5,3.7-7.5,5.5C36,13.2,35.6,14,35.5,15s0.1,2,0.3,3c0.5,1.9,1.6,3.6,2.8,5.1
	c0.2,0.2,0.2,0.2,0.5,0.1c2.7-2,5.4-4,8.1-6c0.2-0.1,0.2-0.2,0.1-0.5C45.6,13.7,44.2,10.6,44.6,7z M41.5,32.5
	c-0.1,0-0.1-0.1-0.1-0.1c-2.1-0.6-3.9-1.8-5.5-3.4c-0.1-0.1-0.2-0.1-0.4,0c-1.3,1-2.6,2-4,2.9c-1.2,0.9-2.5,1.8-3.7,2.7
	c-0.2,0.1-0.2,0.2,0,0.4c0.1,0.1,0.3,0.3,0.4,0.4c1,1.1,2.2,2,3.6,2.5c1,0.3,1.9,0.2,2.8-0.4c1.4-1,2.8-2.1,4.2-3.1
	C39.7,33.8,40.6,33.2,41.5,32.5z M33,15.9c-0.1,0.2-0.1,0.2-0.1,0.2c0,0.1-0.1,0.3-0.1,0.4c-0.2,1.3-0.1,2.5,0.3,3.7
	c1.2,3.4,3.3,6.1,6.2,8.3c0.9,0.7,2,1.3,3.1,1.5c0.4,0.1,0.7,0.1,1.1,0c-0.7-0.3-1.5-0.6-2.1-1.1c-1.3-0.9-2.5-1.8-3.5-3
	c-2-2.2-3.5-4.7-4.5-7.5C33.1,17.8,33,16.9,33,15.9z"/>
<path class="st0" d="M36.1,44.3c-4.8,0-9.5,0-14.3,0c-1.4,0-1.6-0.2-2.1-1.4C16.1,33.6,12.5,24.4,9,15.1c-0.2-0.5-0.4-0.6-0.9-0.6
	c-1.6,0-3.2,0-4.7,0c-0.4,0-0.6,0.1-0.6,0.6c0,0.7,0,1.3,0,2c0,0.9-0.6,1.5-1.3,1.5c-0.8,0-1.4-0.6-1.4-1.6c0-1.2,0-2.4,0-3.7
	c0-1,0.5-1.5,1.5-1.5c2.6,0,5.1,0,7.7,0c1.2,0,1.4,0.2,1.8,1.2c3.6,9.3,7.2,18.6,10.8,27.9c0.2,0.4,0.3,0.6,0.8,0.6
	c8.9,0,17.8,0,26.7,0c0.5,0,0.7-0.2,0.8-0.6c1.9-5.1,3.9-10.2,5.8-15.3c0.2-0.5,3.7-2.1,3.3-1C57,30.8,54.6,37,52.2,43.2
	c-0.3,0.8-0.7,1.1-1.8,1.1C45.7,44.3,40.9,44.3,36.1,44.3z"/>
<path class="st0" d="M43.8,57.7c-3.3,0-6-2.7-6-6c0-3.3,2.7-6,6-6s6,2.7,6,6C49.9,55.1,47.2,57.7,43.8,57.7z M43.9,48.4
	c-1.8,0-3.3,1.4-3.4,3.3c0,1.8,1.5,3.3,3.3,3.3s3.3-1.4,3.3-3.3C47.2,50,45.7,48.5,43.9,48.4z"/>
<path class="st0" d="M22.3,51.7c0-3.3,2.7-6,6-6s6,2.7,6,6c0,3.3-2.7,6-6.1,6C24.9,57.7,22.3,55,22.3,51.7z M28.3,48.4
	c-1.8,0-3.3,1.5-3.3,3.3c0,1.8,1.5,3.3,3.3,3.3c1.8,0,3.3-1.5,3.3-3.3C31.6,49.9,30.1,48.5,28.3,48.4z"/>
</svg>
