<?xml version="1.0" encoding="utf-8"?>
<!-- Generator: Adobe Illustrator 23.0.5, SVG Export Plug-In . SVG Version: 6.00 Build 0)  -->
<svg version="1.1" id="Layer_1" xmlns="http://www.w3.org/2000/svg" xmlns:xlink="http://www.w3.org/1999/xlink" x="0px" y="0px"
	 width="71px" height="45px" viewBox="0 0 71 45" style="enable-background:new 0 0 71 45;" xml:space="preserve">
<style type="text/css">
	.st0{fill:#FFFFFF;}
</style>
<path class="st0" d="M18.1,44.3c-2.3,0-4.5-0.2-6.8-0.6c-0.4-0.1-0.5-0.2-0.6-0.6c-0.6-4.5-1.2-9-1.9-13.4c-0.5-3.7-1-7.3-1.5-11
	C7,16.8,6.8,15,6.5,13.1c-0.1-0.4,0.1-0.6,0.5-0.5c1.4,0.3,2.9,0.5,4.4,0.6c0.7,0,1.1,0.6,1.1,1.2c0,0.6-0.5,1.1-1.2,1
	c-0.6,0-1.3-0.1-1.9-0.2c-0.2,0-0.3,0-0.3,0.3c0.4,2.7,0.8,5.5,1.2,8.2c0.4,2.8,0.8,5.5,1.1,8.3c0.4,2.9,0.8,5.9,1.2,8.8
	c0,0.2,0.1,0.5,0.1,0.7s0.1,0.2,0.3,0.3c1.4,0.2,2.8,0.3,4.1,0.3c3.5,0.1,6.9-0.3,10.3-0.9c2.8-0.5,5.6-1,8.5-1.4c0.1,0,0.3,0,0.4,0
	c0.6,0,1.1,0.4,1.1,1.1c0,0.5-0.3,1-0.9,1.1c-1,0.2-2.1,0.4-3.1,0.5c-2.4,0.4-4.7,0.8-7.1,1.2C23.6,44,20.9,44.3,18.1,44.3z"/>
<path class="st0" d="M44.6,26.9c0.2-0.2,0.3-0.4,0.5-0.6c4.7-6,9.4-12,14.4-17.7c1.8-2.1,3.7-4.1,5.7-6C65.9,2,66.6,1.4,67.4,1
	c0.4-0.2,0.9-0.3,1.3,0c0.5,0.4,0.7,0.8,0.6,1.5c-0.1,0.5-0.4,1-0.6,1.4c-0.4,0.6-0.8,1.2-1.3,1.7c-0.2,0.2-0.3,0.2-0.4-0.1
	c-0.2-0.4-0.1-0.8,0.2-1.1C67.5,4,67.8,3.6,68,3.2c0.1-0.2,0.2-0.4,0.2-0.6c0-0.6-0.6-0.9-1.1-0.6c-0.6,0.3-1.1,0.8-1.5,1.2
	c-1.5,1.6-2.9,3.3-4,5.2c-0.1,0.1-0.2,0.2-0.1,0.4S61.8,9,62,8.9c0.7-0.5,1.3-1,2-1.5c0.1-0.1,0.2-0.2,0.3-0.1
	c0.1,0,0.1,0.2,0.1,0.3c0.1,0.7-0.1,1.2-0.6,1.7c-3,3.1-6.1,6.1-9.3,9s-6.4,5.8-9.7,8.6C44.8,26.8,44.8,26.9,44.6,26.9z"/>
<path class="st0" d="M59.7,19.2c0-1.6,0.5-3.1,1.3-4.5c0.5-1,1.2-1.9,1.9-2.8c0.7-1,1.3-2,1.7-3.2c0.2-0.8,0.2-1.5,0.1-2.3
	c-0.3-1.3,0.1-2.1,1.3-2.7c0.2-0.1,0.2-0.1,0.3,0.1c1.1,2.9,1.1,5.8-0.7,8.4c-0.9,1.2-1.7,2.5-2.5,3.8c-0.8,1.4-1.1,3-0.6,4.6
	c0.4,1.3,1.4,2.2,2.4,2.9c1.2,0.8,2.5,1.3,3.9,1.6c0.1,0,0.2,0,0.3,0.1c0.7,0.2,1,0.6,0.9,1.2c-0.1,0.7-0.6,1.1-1.3,1
	c-1.5-0.2-2.9-0.7-4.3-1.4c-1.6-0.8-2.8-2-3.7-3.5C60,21.5,59.7,20.4,59.7,19.2z"/>
<path class="st0" d="M55.2,10.1c0,0.4-0.1,0.8-0.3,1.2c-0.1,0.2-0.3,0.3-0.6,0.3c-3.2-0.3-6.5-0.1-9.7,0.2c-4.3,0.4-8.6,1.2-12.9,2
	c-1,0.2-2,0.3-2.9,0.5c-0.5,0.1-0.9,0-1.2-0.4c-0.3-0.4-0.3-0.8-0.1-1.2c0.2-0.4,0.5-0.6,0.9-0.6c4.1-0.7,8.1-1.4,12.2-2
	c2.9-0.4,5.8-0.7,8.7-0.8c1.8-0.1,3.6,0,5.5,0.1C55.1,9.4,55.2,9.5,55.2,10.1z"/>
<path class="st0" d="M50.4,38.6c0.9,0,1.7,0.1,2.4,0.2c0.2,0,0.3,0,0.3-0.2c0.2-1.8,0.5-3.5,0.7-5.3c0.3-2.5,0.7-5,1-7.5
	c0.3-2.1,0.6-4.3,0.9-6.4c0-0.3,0.1-0.4,0.3-0.6c0.4-0.3,0.8-0.5,1.3-0.5S58,18.5,58,19c-0.3,2.5-0.7,4.9-1,7.4
	c-0.4,2.7-0.7,5.3-1.1,8c-0.3,2.1-0.6,4.3-0.9,6.4c-0.1,0.5-0.3,0.6-0.8,0.5c-1.2-0.2-2.3-0.4-3.5-0.5c-0.3,0-0.6,0-0.9-0.1
	c-0.6-0.1-1-0.6-0.9-1.2c0-0.6,0.5-1,1.1-1C50.2,38.6,50.3,38.6,50.4,38.6z"/>
<path class="st0" d="M57.5,0c1.3,0.1,2.7,0.2,4,0.6c0.9,0.2,1.7,0.6,2.5,1c0.5,0.2,0.6,0.7,0.3,1.1C64.1,3,64,3.2,63.8,3.4
	c-0.3,0.3-0.7,0.4-1.1,0.2c-1.6-0.9-3.3-1.2-5.1-1.2c-0.4,0-0.9,0-1.3-0.1c-0.6-0.1-1-0.5-1-1.1s0.4-1,0.9-1.1c0.1,0,0.2,0,0.3,0
	C56.8,0,57.1,0,57.5,0z"/>
<path class="st0" d="M0,13.6c0-0.9,0.8-1.6,1.8-1.3c0.8,0.2,1.7,0.5,2.5,0.7c0.7,0.2,1.1,0.9,0.9,1.6c-0.2,0.7-0.9,1.2-1.6,1
	c-0.9-0.2-1.8-0.5-2.7-0.8C0.3,14.7,0,14.2,0,13.6z"/>
<path class="st0" d="M5,23.3c-0.3,0-0.5-0.1-0.8-0.2c-0.7-0.2-1.3-0.4-2-0.6c-0.8-0.3-1.1-1-0.9-1.7c0.2-0.7,1-1.1,1.7-0.9
	c0.8,0.2,1.5,0.4,2.3,0.7c0.7,0.2,1.1,0.8,1,1.5C6.3,22.9,5.7,23.3,5,23.3z"/>
<path class="st0" d="M3.9,27.7c0.3,0,0.6,0.1,0.8,0.2c0.6,0.2,1.1,0.3,1.7,0.5c0.8,0.2,1.2,0.9,1,1.7c-0.2,0.7-0.9,1.1-1.7,1
	c-0.8-0.2-1.6-0.4-2.3-0.7c-0.7-0.2-1-0.9-0.9-1.5C2.7,28.1,3.2,27.7,3.9,27.7z"/>
<path class="st0" d="M62.6,32.5c0,0.9-0.8,1.6-1.7,1.3c-0.8-0.2-1.6-0.4-2.3-0.7c-0.7-0.2-1.1-0.9-0.9-1.6s0.8-1.1,1.5-1
	c0.9,0.1,1.8,0.4,2.6,0.8C62.3,31.4,62.6,31.9,62.6,32.5z"/>
<path class="st0" d="M57.8,38.3c0.2,0,0.4,0.1,0.7,0.1c0.6,0.2,1.3,0.3,1.9,0.6c0.7,0.3,1,0.9,0.9,1.6c-0.2,0.7-0.8,1.1-1.5,1
	c-0.9-0.2-1.7-0.4-2.6-0.7c-0.6-0.2-0.9-0.9-0.7-1.5C56.6,38.7,57.2,38.3,57.8,38.3z"/>
<path class="st0" d="M7.2,38.7c-0.1,0-0.2,0-0.3-0.1c-0.7-0.2-1.4-0.4-2.1-0.6c-0.8-0.2-1.2-1-1-1.7s0.9-1.1,1.7-0.9
	c0.7,0.2,1.4,0.4,2.1,0.6c0.6,0.2,1,0.7,0.9,1.3c0,0.6-0.4,1.1-0.9,1.2C7.6,38.7,7.5,38.7,7.2,38.7z"/>
<path class="st0" d="M43.2,30.4c0,0.4,0,0.8,0,1.2c0,0.6-0.4,0.9-0.9,0.9s-0.9-0.4-0.9-0.9c0-0.8,0-1.6,0-2.4c0-0.6,0.4-0.9,0.9-0.9
	s0.9,0.4,0.9,0.9C43.2,29.6,43.2,30,43.2,30.4z"/>
<path class="st0" d="M22,20.5c0,0.4,0,0.8,0,1.1c0,0.6-0.3,0.9-0.8,0.9c-0.6,0-0.9-0.3-0.9-0.9c-0.1-0.8-0.1-1.6,0-2.4
	c0-0.6,0.4-0.9,1-0.9c0.5,0,0.8,0.4,0.8,1C22,19.7,22,20.1,22,20.5z"/>
<path class="st0" d="M43.2,37.7c0,0.4,0,0.8,0,1.2c0,0.6-0.3,0.9-0.9,0.9c-0.5,0-0.9-0.3-0.9-0.9c0-0.8,0-1.5,0-2.3
	c0-0.6,0.4-1,0.9-0.9c0.5,0,0.9,0.4,0.9,1C43.2,36.9,43.2,37.3,43.2,37.7z"/>
<path class="st0" d="M22,13.3c0,0.4,0,0.8,0,1.1c0,0.6-0.4,0.9-0.9,1c-0.5,0-0.8-0.4-0.9-0.9c0-0.8,0-1.7,0-2.5
	c0-0.5,0.4-0.8,0.9-0.8s0.8,0.3,0.9,0.8c0,0,0,0,0,0.1C22,12.4,22,12.8,22,13.3z"/>
<path class="st0" d="M24.7,16c0.4,0,0.8,0,1.3,0s0.8,0.3,0.9,0.8c0,0.4-0.2,0.8-0.7,0.9c-0.1,0-0.2,0-0.2,0c-0.8,0-1.6,0-2.4,0
	c-0.6,0-0.9-0.4-0.9-0.9s0.4-0.8,0.9-0.8C24,16,24.3,16,24.7,16C24.6,16,24.6,16,24.7,16z"/>
<path class="st0" d="M17.5,16c0.4,0,0.8,0,1.2,0c0.5,0,0.9,0.3,0.9,0.8s-0.3,0.9-0.8,1c-0.9,0-1.8,0-2.7,0c-0.5,0-0.8-0.4-0.8-0.9
	s0.4-0.8,0.9-0.8C16.7,16,17.1,16,17.5,16z"/>
<path class="st0" d="M45.9,33.2c0.4,0,0.8,0,1.1,0c0.6,0,0.9,0.3,0.9,0.9c0,0.5-0.4,0.9-0.9,0.9c-0.8,0-1.5,0-2.3,0
	c-0.6,0-0.9-0.4-0.9-0.9s0.3-0.9,0.9-0.9C45.1,33.2,45.5,33.2,45.9,33.2z"/>
<path class="st0" d="M38.7,34.9c-0.4,0-0.8,0-1.1,0c-0.6,0-0.9-0.3-0.9-0.9c0-0.5,0.3-0.9,0.9-0.9c0.8,0,1.6,0,2.4,0
	c0.6,0,0.9,0.4,0.9,0.9s-0.4,0.9-0.9,0.9S39.1,34.9,38.7,34.9z"/>
<path class="st0" d="M21.1,16c0.5,0,0.9,0.4,0.9,0.9s-0.4,0.9-0.9,0.9s-0.9-0.4-0.9-0.9C20.2,16.3,20.6,16,21.1,16z"/>
<path class="st0" d="M42.3,33.2c0.5,0,0.9,0.4,0.9,0.9S42.8,35,42.3,35s-0.9-0.4-0.9-0.9C41.4,33.5,41.8,33.2,42.3,33.2z"/>
</svg>
