<svg width="10" height="8" viewBox="0 0 10 8" fill="none" xmlns="http://www.w3.org/2000/svg">
<path d="M9.8 -2C10.03 -1.91 10.06 -1.79 9.9 -1.59C9.44 -1.04 8.99 -0.49 8.57 0.0699999C7.55 1.4 6.67 2.8 5.9 4.25C5.3 5.39 4.77 6.56 4.32 7.76C4.25 7.95 4.07 7.96 3.9 7.98C3.72 8 3.53 8 3.34 7.97C3.2 7.95 3.11 7.89 3.04 7.78C2.71 7.28 2.36 6.8 1.98 6.34C1.51 5.77 0.98 5.26 0.43 4.76C0.27 4.62 0.12 4.48 0 4.31C0 4.28 0 4.24 0 4.21C0.13 3.98 0.38 3.94 0.63 3.88C0.95 3.81 1.17 3.93 1.39 4.13C2.2 4.88 2.86 5.73 3.49 6.61C3.52 6.66 3.55 6.71 3.62 6.76C3.74 6.47 3.86 6.19 3.99 5.91C5.13 3.32 6.54 0.86 8.38 -1.41C8.65 -1.75 8.98 -1.94 9.43 -1.97C9.44 -1.97 9.46 -1.99 9.47 -2C9.58 -2 9.69 -2 9.8 -2Z" fill="white"/>
</svg>
