<svg width="14" height="14" viewBox="0 0 14 14" fill="none" xmlns="http://www.w3.org/2000/svg">
<path d="M8.76927 7.00021L13.6343 2.13513C14.123 1.6469 14.123 0.854719 13.6343 0.366487C13.1457 -0.122162 12.3544 -0.122162 11.8657 0.366487L7.00063 5.23157L2.13513 0.366487C1.64648 -0.122162 0.855136 -0.122162 0.366487 0.366487C-0.122162 0.854719 -0.122162 1.6469 0.366487 2.13513L5.23198 7.00021L0.366487 11.8653C-0.122162 12.3535 -0.122162 13.1457 0.366487 13.6339C0.610811 13.8778 0.931018 14 1.25081 14C1.5706 14 1.8908 13.8778 2.13513 13.6335L7.00063 8.76843L11.8657 13.6335C12.11 13.8778 12.4302 14 12.75 14C13.0698 14 13.39 13.8778 13.6343 13.6335C14.123 13.1453 14.123 12.3531 13.6343 11.8649L8.76927 7.00021Z" fill="#333333"/>
</svg>
