<svg width="28" height="28" viewBox="0 0 28 28" fill="none" xmlns="http://www.w3.org/2000/svg">
<path d="M15.0616 14.0001L19.7806 9.28108C20.0738 8.98814 20.0738 8.51283 19.7806 8.21989C19.4874 7.9267 19.0126 7.9267 18.7194 8.21989L14.0004 12.9389L9.28108 8.21989C8.98789 7.9267 8.51308 7.9267 8.21989 8.21989C7.9267 8.51283 7.9267 8.98814 8.21989 9.28108L12.9392 14.0001L8.21989 18.7192C7.9267 19.0121 7.9267 19.4874 8.21989 19.7804C8.36649 19.9267 8.55861 20 8.75048 20C8.94236 20 9.13448 19.9267 9.28108 19.7801L14.0004 15.0611L18.7194 19.7801C18.866 19.9267 19.0581 20 19.25 20C19.4419 20 19.634 19.9267 19.7806 19.7801C20.0738 19.4872 20.0738 19.0119 19.7806 18.7189L15.0616 14.0001Z" fill="#333333"/>
<path d="M27 14C27 21.1797 21.1797 27 14 27C6.8203 27 1 21.1797 1 14C1 6.8203 6.8203 1 14 1C21.1797 1 27 6.8203 27 14Z" stroke="#333333" stroke-width="1.5"/>
</svg>
