<svg width="20" height="20" viewBox="0 0 20 20" fill="none" xmlns="http://www.w3.org/2000/svg">
<path d="M9.04356 9.93367L0.190711 18.7865C-0.0552365 19.0325 -0.0552365 19.4309 0.190711 19.6769C0.313528 19.8 0.474784 19.8612 0.635728 19.8612C0.796984 19.8612 0.957928 19.8 1.08075 19.6769L10.0002 10.7575L18.9196 19.6769C19.0427 19.8 19.2036 19.8612 19.3646 19.8612C19.5255 19.8612 19.6868 19.8 19.8096 19.6769C20.0555 19.4309 20.0555 19.0325 19.8096 18.7865L10.9571 9.93367L19.8155 1.07457C20.0615 0.828626 20.0615 0.430173 19.8155 0.184226C19.5696 -0.0614086 19.1711 -0.0614086 18.9255 0.184226L10.0005 9.10989L1.0745 0.184538C0.828548 -0.0610961 0.430407 -0.0610961 0.18446 0.184538C-0.0614868 0.430486 -0.0614868 0.828939 0.18446 1.07489L9.04356 9.93367Z" fill="#999999"/>
</svg>
