<?xml version="1.0" encoding="utf-8"?>
<!-- Generator: Adobe Illustrator 23.0.5, SVG Export Plug-In . SVG Version: 6.00 Build 0)  -->
<svg version="1.1" id="Layer_1" xmlns="http://www.w3.org/2000/svg" xmlns:xlink="http://www.w3.org/1999/xlink" x="0px" y="0px"
	 width="61px" height="64px" viewBox="0 0 61 64" style="enable-background:new 0 0 61 64;" xml:space="preserve">
<style type="text/css">
	.st0{fill:#FFFFFF;}
</style>
<path class="st0" d="M20.6,62.7c-3.3-0.6-6.6-1.4-9.9-2c-0.4-0.1-0.8-0.1-1-0.3c-0.5-0.5-0.8-1-1.3-1.5c0.6-0.3,1.3-0.8,1.8-0.6
	c3.3,0.5,6.6,1.5,9.9,1.9c2.7,0.3,5.5,0.3,8.3-0.1c4.6-0.6,8-3.2,9.9-7.6c0.6-1.5,1-3.1,1.7-4.6c0.3-0.6,0.8-1.1,1.3-1.7
	c0.5,0.5,1.4,0.9,1.5,1.5c0.6,2.4,1.1,4.8,1.5,7.3c0.3,1.1,0.5,2.4,0.8,4.1c0.9-1,1.5-1.7,2-2.4c1.5-2.5,2.9-5.2,4.5-7.8
	c0.4-0.6,1-1,1.7-1.5c0.4,0.5,0.9,1,1.3,1.7c0.8,1.3,1.5,2.5,2.2,3.8c0.1,0,0.4-0.1,0.5-0.1c0.3-0.9,0.4-1.8,0.8-2.5
	c0.3-0.5,1-0.9,1.5-1.3c0.3,0.6,0.5,1.1,0.8,1.8c0.1,0.3-0.1,0.5-0.1,0.9c-0.5,1.5-0.5,3.4-2.5,3.7c-1.9,0.3-2.8-1.3-3.8-2.5
	c-0.3-0.3-0.5-0.6-0.8-1.1c-1.1,2-2.2,4.1-3.4,6c-0.9,1.4-2.2,2.5-3.3,3.7c-1.1,0.9-2.3,0.8-2.7-0.8c-0.8-2.8-1.4-5.5-2.2-8.3
	c-0.1,0.1-0.3,0.4-0.4,0.6c-2.3,5.7-6.6,8.9-12.6,9.9c-0.3,0-0.5,0.3-0.8,0.3C25.2,62.7,22.9,62.7,20.6,62.7z"/>
<path class="st0" d="M43.8,19.9C36.2,27.5,28.4,35,20.9,42.8c-3.7,4-7.6,6.9-13,7.9C6.6,51,5.2,51.5,3.7,52c1-3.6,2-6.9,3.2-10.1
	C7.1,41,7.8,40,8.4,39.4c8.8-8.8,17.7-17.6,26.5-26.4c0.6-0.5,1.2-1,1.8-1.4l-1.9-2.1c-0.3,0.5-0.6,0.9-0.9,1.2
	C26.4,18.4,19,26,11.2,33.3c-4.3,4-7.3,8.4-8.5,14C2,50,0.9,52.5,0,55.1c0,0.3,0,0.5,0,0.6c5-1.5,9.9-3.1,14.9-4.7
	c1-0.4,2-0.9,2.8-1.7c6.5-6.4,13-12.9,19.5-19.4c2.8-2.8,5.6-5.6,8.5-8.5l-1.6-1.8C44,19.7,43.9,19.8,43.8,19.9z"/>
<path class="st0" d="M44.6,3.3c2.9,2.9,5.5,5.5,8.2,8.3c-1.8,1.5-3.5,3.1-5,4.5l1.6,1.8c2.3-2.3,4.5-4.4,6.7-6.5c0-0.1,0-0.3,0-0.4
	C52.4,7.4,48.7,3.7,45,0c-0.1,0-0.3,0-0.4,0c-1.9,2.1-4,4.1-5.9,6.2l1.7,1.9C41.9,6.4,43.3,4.8,44.6,3.3z"/>
<path class="st0" d="M13.1,44.5c9.4-9.6,18.6-18.9,27.8-28.2l-1.5-1.6C30,24.2,20.9,33.6,11.7,42.8C12.1,43.2,12.5,43.8,13.1,44.5z"
	/>
</svg>
