<svg width="61" height="64" viewBox="0 0 61 64" fill="none" xmlns="http://www.w3.org/2000/svg">
<path d="M20.6 62.7C17.3 62.1 14 61.3 10.7 60.7C10.3 60.6 9.90002 60.6 9.70002 60.4C9.20002 59.9 8.90002 59.4 8.40002 58.9C9.00002 58.6 9.70002 58.1 10.2 58.3C13.5 58.8 16.8 59.8 20.1 60.2C22.8 60.5 25.6 60.5 28.4 60.1C33 59.5 36.4 56.9 38.3 52.5C38.9 51 39.3 49.4 40 47.9C40.3 47.3 40.8 46.8 41.3 46.2C41.8 46.7 42.7 47.1 42.8 47.7C43.4 50.1 43.9 52.5 44.3 55C44.6 56.1 44.8 57.4 45.1 59.1C46 58.1 46.6 57.4 47.1 56.7C48.6 54.2 50 51.5 51.6 48.9C52 48.3 52.6 47.9 53.3 47.4C53.7 47.9 54.2 48.4 54.6 49.1C55.4 50.4 56.1 51.6 56.8 52.9C56.9 52.9 57.2 52.8 57.3 52.8C57.6 51.9 57.7 51 58.1 50.3C58.4 49.8 59.1 49.4 59.6 49C59.9 49.6 60.1 50.1 60.4 50.8C60.5 51.1 60.3 51.3 60.3 51.7C59.8 53.2 59.8 55.1 57.8 55.4C55.9 55.7 55 54.1 54 52.9C53.7 52.6 53.5 52.3 53.2 51.8C52.1 53.8 51 55.9 49.8 57.8C48.9 59.2 47.6 60.3 46.5 61.5C45.4 62.4 44.2 62.3 43.8 60.7C43 57.9 42.4 55.2 41.6 52.4C41.5 52.5 41.3 52.8 41.2 53C38.9 58.7 34.6 61.9 28.6 62.9C28.3 62.9 28.1 63.2 27.8 63.2C25.2 62.7 22.9 62.7 20.6 62.7Z" fill="black"/>
<path d="M43.8 19.9C36.2 27.5 28.4 35 20.9 42.8C17.2 46.8 13.3 49.7 7.9 50.7C6.6 51 5.2 51.5 3.7 52C4.7 48.4 5.7 45.1 6.9 41.9C7.1 41 7.8 40 8.4 39.4C17.2 30.6 26.1 21.8 34.9 13C35.5 12.5 36.1 12 36.7 11.6L34.8 9.5C34.5 10 34.2 10.4 33.9 10.7C26.4 18.4 19 26 11.2 33.3C6.9 37.3 3.9 41.7 2.7 47.3C2 50 0.9 52.5 0 55.1C0 55.4 0 55.6 0 55.7C5 54.2 9.9 52.6 14.9 51C15.9 50.6 16.9 50.1 17.7 49.3C24.2 42.9 30.7 36.4 37.2 29.9C40 27.1 42.8 24.3 45.7 21.4L44.1 19.6C44 19.7 43.9 19.8 43.8 19.9Z" fill="black"/>
<path d="M44.6 3.3C47.5 6.2 50.1 8.8 52.8 11.6C51 13.1 49.3 14.7 47.8 16.1L49.4 17.9C51.7 15.6 53.9 13.5 56.1 11.4C56.1 11.3 56.1 11.1 56.1 11C52.4 7.4 48.7 3.7 45 0C44.9 0 44.7 0 44.6 0C42.7 2.1 40.6 4.1 38.7 6.2L40.4 8.1C41.9 6.4 43.3 4.8 44.6 3.3Z" fill="black"/>
<path d="M13.1 44.5C22.5 34.9 31.7 25.6 40.9 16.3L39.4 14.7C30 24.2 20.9 33.6 11.7 42.8C12.1 43.2 12.5 43.8 13.1 44.5Z" fill="black"/>
</svg>
