<svg width="18" height="18" viewBox="0 0 18 18" fill="none" xmlns="http://www.w3.org/2000/svg">
<path d="M18 13.42V16.956C18.0002 17.4813 17.594 17.9172 17.07 17.954C16.633 17.984 16.276 18 16 18C7.163 18 0 10.837 0 2C0 1.724 0.015 1.367 0.046 0.93C0.0827706 0.405994 0.518706 -0.000237698 1.044 2.6064e-07H4.58C4.83697 -0.000259929 5.0523 0.194314 5.078 0.45C5.101 0.68 5.122 0.863 5.142 1.002C5.34073 2.38892 5.748 3.73783 6.35 5.003C6.445 5.203 6.383 5.442 6.203 5.57L4.045 7.112C5.36445 10.1865 7.81455 12.6365 10.889 13.956L12.429 11.802C12.5589 11.6204 12.8001 11.5577 13.002 11.653C14.267 12.2539 15.6156 12.6601 17.002 12.858C17.141 12.878 17.324 12.9 17.552 12.922C17.8073 12.9482 18.0013 13.1634 18.001 13.42H18Z" fill="black"/>
</svg>
