<svg width="90" height="90" viewBox="0 0 90 90" fill="none" xmlns="http://www.w3.org/2000/svg">
<rect x="1" y="1" width="88" height="88" rx="7" stroke="#FE681B" stroke-width="2"/>
<path d="M45.1583 75C42.4008 75 39.6507 75 36.8931 75C35.8702 75 35.2994 74.4218 35.2994 73.3914C35.2994 72.3166 35.2846 71.2417 35.3068 70.1669C35.3142 69.863 35.2178 69.7963 34.9362 69.8037C34.395 69.8259 33.8465 69.8111 33.3054 69.8111C32.6679 69.8037 32.186 69.3589 32.186 68.7733C32.186 68.1877 32.6604 67.7429 33.2979 67.7355C33.8687 67.7281 34.4321 67.7281 35.0029 67.7355C35.2178 67.7429 35.3068 67.6984 35.3068 67.4538C35.292 66.6977 35.292 65.949 35.3068 65.1929C35.3142 64.9557 35.2327 64.9038 35.0103 64.9038C34.4395 64.9187 33.8761 64.9113 33.3054 64.9113C32.6604 64.9038 32.186 64.4665 32.186 63.8809C32.186 63.2953 32.6604 62.8431 33.2979 62.8431C33.8539 62.8357 34.4099 62.8209 34.9658 62.8505C35.2549 62.8653 35.3068 62.7616 35.3068 62.4947C35.2771 60.7379 34.9139 59.0404 34.4469 57.3651C33.4314 53.7254 31.6227 50.4935 29.2951 47.5284C26.582 44.0963 25.2032 40.1823 25.0179 35.8088C24.6028 25.9573 31.4818 18.8855 37.6418 16.4171C39.8212 15.5498 42.082 15.105 44.4245 15.0161C47.8714 14.8901 51.1701 15.4979 54.2315 17.0916C59.9542 20.0642 63.5049 24.7119 64.7947 31.0424C65.6546 35.2603 65.2765 39.3669 63.4678 43.3031C62.6895 44.9932 61.6517 46.5202 60.4953 47.9731C57.7971 51.383 55.9884 55.2006 55.2693 59.5074C55.1062 60.4784 54.9876 61.4569 55.0025 62.4502C55.0099 62.7467 55.0618 62.8579 55.3805 62.8431C55.9735 62.8134 56.5665 62.8283 57.1596 62.8357C57.7971 62.8431 58.2715 63.2879 58.2715 63.8735C58.2715 64.4591 57.7971 64.9038 57.1522 64.9038C56.5221 64.9113 55.892 64.9113 55.2619 64.9038C55.0766 64.9038 55.0025 64.9483 55.0025 65.1485C55.0099 65.9268 55.0099 66.7051 55.0025 67.4835C55.0025 67.691 55.084 67.7281 55.2619 67.7281C55.892 67.7207 56.5221 67.7207 57.1522 67.7281C57.7896 67.7355 58.2641 68.1803 58.2641 68.7659C58.2641 69.3515 57.7896 69.7963 57.1447 69.8037C56.5517 69.8111 55.9587 69.8185 55.3657 69.7963C55.084 69.7888 54.9876 69.8481 54.995 70.1521C55.0173 71.2121 55.0025 72.2795 55.0025 73.3395C55.0025 74.4292 54.4465 74.9852 53.3717 74.9852C50.6364 75 47.8936 75 45.1583 75ZM45.1657 62.8431C47.649 62.8431 50.1323 62.8431 52.6156 62.8505C52.8676 62.8505 52.9565 62.7986 52.9491 62.5318C52.9343 61.8276 52.8898 61.1159 52.9714 60.4191C53.6311 55.2376 55.6029 50.6047 58.9534 46.587C61.8592 43.103 63.3121 39.1371 63.2084 34.5931C63.1417 31.7466 62.4671 29.0558 61.118 26.5429C57.4635 19.7232 49.5689 15.7648 41.6743 17.3288C33.1126 19.019 27.2936 26.3131 27.1676 34.7785C27.1009 39.0408 28.4574 42.8509 31.0815 46.2089C32.5418 48.0695 33.8391 50.0339 34.8472 52.1762C36.3816 55.46 37.4787 58.855 37.375 62.5392C37.3675 62.8357 37.4936 62.8431 37.7234 62.8431C40.1992 62.8431 42.6825 62.8431 45.1657 62.8431ZM45.1657 69.8111C42.6973 69.8111 40.2289 69.8185 37.7604 69.8037C37.4194 69.8037 37.3527 69.9 37.3601 70.2114C37.3824 70.8044 37.3675 71.3974 37.3675 71.9904C37.3675 72.576 37.6492 72.8577 38.2274 72.8577C42.8456 72.8577 47.4637 72.8577 52.0818 72.8577C52.6378 72.8577 52.9269 72.5612 52.9343 72.0201C52.9417 71.4048 52.9195 70.7822 52.9417 70.1669C52.9565 69.8704 52.8676 69.8037 52.5785 69.8037C50.11 69.8111 47.6416 69.8111 45.1657 69.8111ZM45.1139 67.7355C47.6045 67.7355 50.1026 67.7281 52.5933 67.7429C52.875 67.7429 52.9491 67.6762 52.9417 67.3945C52.9195 66.6681 52.9269 65.9342 52.9417 65.2078C52.9417 64.9854 52.8972 64.9113 52.66 64.9113C47.6564 64.9187 42.6602 64.9187 37.6566 64.9113C37.4268 64.9113 37.3601 64.9706 37.3675 65.2004C37.3824 65.9194 37.3898 66.631 37.3675 67.3501C37.3601 67.654 37.4268 67.7429 37.7456 67.7429C40.1992 67.7281 42.6602 67.7355 45.1139 67.7355Z" fill="black"/>
<path d="M45.6105 62.1907C45.2992 62.1907 45.9878 62.1759 45.6839 62.1981C45.4171 62.2204 45.2985 62.1166 45.2169 61.8571C44.4534 59.322 43.8054 56.7133 43.0493 54.1708C42.4933 52.2953 41.967 50.4051 41.5 48.5C41.1738 47.1805 39.3023 46.2311 38.1904 45.4601C35.418 43.5328 33.6686 40.9161 32.957 37.6249C31.4448 30.5902 36.2927 23.6222 43.4089 22.5844C50.2435 21.5911 56.6333 26.1425 57.7155 32.94C58.5161 37.9807 56.8186 42.1689 52.7119 45.2155C50.918 46.5498 48.878 46.8132 48.5 49C47.8329 52.8917 46.9159 58.0766 46.0263 61.9164C45.9745 62.1314 45.8929 62.1981 45.6779 62.1907C45.3221 62.1759 45.9663 62.1907 45.6105 62.1907ZM54.6392 33.2143C54.6689 33.066 54.6022 32.8733 54.5651 32.6806C53.8535 29.1892 50.8958 26.3279 47.4044 25.7274C46.6038 25.594 45.9293 26.0462 45.781 26.8171C45.6327 27.5658 46.1294 28.2626 46.9152 28.4034C47.3673 28.485 47.8047 28.6036 48.2272 28.7889C50.2731 29.7081 51.5185 31.2722 51.9706 33.4737C52.1189 34.2002 52.7416 34.6598 53.4458 34.5856C54.1278 34.5115 54.6392 33.9482 54.6392 33.2143Z" fill="#FE681B"/>
</svg>
