<svg width="60" height="58" viewBox="0 0 60 58" fill="none" xmlns="http://www.w3.org/2000/svg">
<path d="M57.2729 27.2728H46.3638C44.8577 27.2728 43.6365 28.494 43.6365 30.0001C43.6365 31.5062 44.8577 32.7274 46.3638 32.7274H57.2729C58.779 32.7274 60.0002 31.5062 60.0002 30.0001C60.0002 28.494 58.7793 27.2728 57.2729 27.2728Z" fill="#FE681B"/>
<path d="M13.6364 27.2728H2.72729C1.22119 27.2728 0 28.494 0 30.0001C0 31.5062 1.22119 32.7274 2.72729 32.7274H13.6364C15.1425 32.7274 16.3637 31.5062 16.3637 30.0001C16.3637 28.494 15.1425 27.2728 13.6364 27.2728Z" fill="#FFE1D1"/>
<path d="M47.3562 8.78686L39.6421 16.501C38.577 17.5658 38.577 19.2927 39.6421 20.3578C40.1745 20.8905 40.8726 21.1568 41.5703 21.1568C42.2684 21.1568 42.9665 20.8908 43.4989 20.3578L51.213 12.6436C52.2781 11.5788 52.2781 9.85195 51.213 8.78686C50.1482 7.72176 48.4213 7.72176 47.3562 8.78686Z" fill="#FE8649"/>
<path d="M30 46.3638C28.4939 46.3638 27.2727 47.585 27.2727 49.0911V54.5456C27.2727 56.0517 28.4939 57.2729 30 57.2729C31.5061 57.2729 32.7273 56.0517 32.7273 54.5456V49.0911C32.7273 47.585 31.5061 46.3638 30 46.3638Z" fill="#FFF0E8"/>
<path d="M16.5007 39.6424L8.78686 47.3566C7.72176 48.4217 7.72176 50.1483 8.78686 51.2134C9.31927 51.7458 10.0173 52.0121 10.7154 52.0121C11.4135 52.0121 12.1115 51.7458 12.6436 51.2134L20.3575 43.4992C21.4226 42.4341 21.4226 40.7075 20.3575 39.6424C19.2927 38.5774 17.5658 38.5774 16.5007 39.6424Z" fill="#FFF0E8"/>
<path d="M30.0002 0C28.4941 0 27.2729 1.22119 27.2729 2.72729V13.6364C27.2729 15.1425 28.4941 16.3637 30.0002 16.3637C31.5063 16.3637 32.7275 15.1425 32.7275 13.6364V2.72729C32.7275 1.22119 31.5063 0 30.0002 0Z" fill="#FEA476"/>
<path d="M12.6439 8.78686C11.5791 7.72176 9.8522 7.72176 8.7871 8.78686C7.72201 9.85195 7.72201 11.5786 8.7871 12.6436L16.501 20.3578C17.0334 20.8905 17.7314 21.1568 18.4295 21.1568C19.1273 21.1568 19.8256 20.8905 20.3577 20.3578C21.4228 19.293 21.4228 17.5661 20.3577 16.501L12.6439 8.78686Z" fill="#FFC3A4"/>
</svg>
