<svg width="19" height="23" viewBox="0 0 19 23" fill="none" xmlns="http://www.w3.org/2000/svg">
<path fill-rule="evenodd" clip-rule="evenodd" d="M16.4994 4.62C18.0894 6.9 18.4594 9.8 17.4894 12.36C17.2394 13.04 16.8394 13.7 16.2594 14.36L9.87944 21.77C9.78944 21.88 9.64944 21.94 9.50944 21.94C9.36944 21.94 9.23944 21.88 9.13944 21.77L2.75944 14.36C2.20944 13.72 1.79944 13.05 1.53944 12.36C0.559438 9.8 0.929436 6.9 2.52944 4.62C4.12944 2.32 6.67944 1 9.50944 1C12.3394 1 14.8894 2.32 16.4994 4.62ZM16.5794 12.02C17.4494 9.76 17.1194 7.19 15.6994 5.16C14.2794 3.12 12.0194 1.95 9.50944 1.95C6.99944 1.95 4.74944 3.12 3.31944 5.16C1.90944 7.19 1.57944 9.76 2.43944 12.02C2.65944 12.61 3.01944 13.19 3.49944 13.73L9.50944 20.72L15.5294 13.74V13.73C16.0294 13.15 16.3694 12.61 16.5794 12.03C16.5794 12.03 16.5794 12.03 16.5794 12.02ZM9.50944 4.54C12.2394 4.54 14.4394 6.72 14.4494 9.41C14.4494 12.11 12.2394 14.29 9.50944 14.29C6.78944 14.29 4.57943 12.11 4.57943 9.41C4.57943 6.72 6.78944 4.54 9.50944 4.54ZM13.4794 9.41C13.4794 7.25 11.6994 5.49 9.50944 5.49C7.31944 5.49 5.54944 7.25 5.54944 9.41C5.54944 11.58 7.31944 13.34 9.50944 13.34C11.6994 13.33 13.4794 11.58 13.4794 9.41Z" stroke="white"/>
</svg>
