<svg width="211" height="35" viewBox="0 0 211 35" fill="none" xmlns="http://www.w3.org/2000/svg">
<path d="M32.7085 0.460602H0.471436V32.6976H32.7085V0.460602Z" fill="#FE681B"/>
<mask id="mask0" mask-type="alpha" maskUnits="userSpaceOnUse" x="0" y="0" width="33" height="33">
<path d="M32.7085 0.460571H0.471436V32.6976H32.7085V0.460571Z" fill="#FE681B"/>
</mask>
<g mask="url(#mask0)">
<path d="M32.6109 0.000266746L0.046875 32.5643L0.589608 33.107L33.1536 0.543L32.6109 0.000266746Z" fill="#FFB667"/>
</g>
<path d="M8.14686 4.91237V4.60535H13.0592V4.83561H12.7521C12.4451 4.83561 12.2916 4.91237 12.1381 4.98912C12.0614 5.06588 11.9078 5.14263 11.8311 5.29614C11.7543 5.3729 11.7543 5.67991 11.7543 6.14044V10.7457C11.7543 11.59 11.6776 12.2808 11.5241 12.6646C11.3706 13.0484 11.0635 13.4322 10.603 13.6624C10.1425 13.8927 9.6052 14.0462 8.99116 14.0462C8.22361 14.0462 7.60957 13.8159 7.14905 13.4322C6.68852 13.0484 6.45825 12.5878 6.45825 12.0506C6.45825 11.7435 6.53501 11.5133 6.76527 11.283C6.99554 11.0528 7.2258 10.976 7.45606 10.976C7.76308 10.976 7.99335 11.0528 8.14686 11.2063C8.30037 11.3598 8.45388 11.59 8.45388 11.8203C8.45388 11.9738 8.45388 12.0506 8.37712 12.1273C8.37712 12.2041 8.30037 12.2808 8.14686 12.4343C7.99335 12.5878 7.99335 12.7414 7.99335 12.8181C7.99335 12.9716 8.0701 13.0484 8.14686 13.1251C8.30037 13.2786 8.53063 13.2786 8.83765 13.2786C9.06792 13.2786 9.22143 13.2019 9.29818 13.1251C9.45169 13.0484 9.52845 12.8949 9.52845 12.6646C9.52845 12.4343 9.6052 11.8971 9.6052 10.8992V6.2172C9.6052 5.75667 9.6052 5.44965 9.52845 5.3729C9.45169 5.29614 9.37494 5.14263 9.22143 5.06588C9.06792 4.98912 8.83765 4.91237 8.60739 4.91237H8.14686Z" fill="#FFB667"/>
<path d="M25.8002 18.6515V21.8752H25.57C25.3397 21.0309 25.0327 20.4169 24.4954 19.9563C23.9581 19.4958 23.3441 19.2655 22.6533 19.2655C22.116 19.2655 21.5787 19.419 21.0414 19.7261C20.5809 20.0331 20.1971 20.4936 19.9669 21.0309C19.6599 21.7217 19.5064 22.4892 19.5064 23.3335C19.5064 24.1778 19.5831 24.8686 19.8134 25.5594C20.0436 26.2502 20.3507 26.7108 20.8112 27.0945C21.2717 27.4783 21.809 27.6318 22.4998 27.6318C23.1138 27.6318 23.5744 27.4783 24.1116 27.248C24.5722 27.0178 25.1095 26.5572 25.6467 25.9432V26.7108C25.1095 27.248 24.5722 27.6318 24.0349 27.8621C23.4976 28.0923 22.8068 28.2458 22.116 28.2458C21.1182 28.2458 20.2739 28.0156 19.5064 27.6318C18.7388 27.248 18.1248 26.7108 17.741 25.9432C17.3572 25.1757 17.127 24.4081 17.127 23.5638C17.127 22.7195 17.3572 21.8752 17.8177 21.0309C18.2783 20.2633 18.8923 19.6493 19.6599 19.1888C20.4274 18.7283 21.2717 18.5747 22.116 18.5747C22.7301 18.5747 23.4208 18.7283 24.1884 18.9585C24.5722 19.112 24.8792 19.1888 24.9559 19.1888C25.1095 19.1888 25.263 19.112 25.3397 19.0353C25.4165 18.9585 25.4932 18.7283 25.57 18.498H25.8002V18.6515Z" fill="#FFB667"/>
<path d="M44.9934 2.22597V1.1514H53.2829V2.14921H52.8992C51.6711 2.14921 50.9803 2.84 50.9803 4.14484V15.5813C50.9803 18.191 50.2128 20.1866 48.6777 21.7217C47.6031 22.7963 46.2215 23.3335 44.4561 23.3335C42.614 23.3335 41.6162 22.7963 41.6162 21.7984C41.6162 21.3379 41.8465 20.9541 42.2303 20.6471C42.614 20.3401 42.9978 20.1866 43.4583 20.1866C43.8421 20.1866 44.1491 20.2634 44.3794 20.4936C44.4561 20.5704 44.6864 20.8006 45.1469 21.1844C45.5307 21.5682 45.8377 21.7217 46.068 21.7217C46.9123 21.7217 47.3728 20.8774 47.3728 19.1888V4.14484C47.3728 2.84 46.7588 2.22597 45.454 2.22597H44.9934Z" fill="#333333"/>
<path d="M64.4122 15.5045L64.796 16.1186C64.4122 16.5023 63.9517 16.8861 63.4144 17.1931C62.8771 17.5001 62.3399 17.6537 61.8793 17.6537C60.8815 17.6537 60.2675 17.1164 60.0372 16.0418C59.4232 16.6558 58.8859 17.0396 58.5789 17.1931C58.0416 17.5001 57.5043 17.6537 56.8135 17.6537C55.8924 17.6537 55.2017 17.4234 54.6644 16.9629C54.0503 16.5023 53.8201 15.8115 53.8201 14.8905C53.8201 14.0462 54.0503 13.3554 54.5876 12.8181C54.9714 12.4343 55.8157 12.0506 57.0438 11.59C58.2718 11.2062 59.2697 10.7457 59.9605 10.1317V9.13387C59.9605 8.67334 59.8069 8.21281 59.4999 7.90579C59.1929 7.67553 58.8091 7.52202 58.3486 7.52202C57.4275 7.52202 56.967 7.98255 56.967 8.98036C56.967 9.13387 56.967 9.28738 56.967 9.51764L54.0503 10.5155C53.9736 10.2084 53.9736 9.90142 53.9736 9.5944C53.9736 8.98036 54.2038 8.44307 54.6644 7.98255C55.0481 7.59877 55.7389 7.215 56.5832 6.90798C57.4275 6.60096 58.1951 6.44745 58.8859 6.44745C60.3442 6.44745 61.4955 6.90798 62.4166 7.82904C62.8771 8.28956 63.1074 8.9036 63.1074 9.67115V14.5835C63.1074 15.351 63.2609 15.8115 63.6447 15.8115C63.9517 15.8115 64.182 15.658 64.4122 15.5045ZM59.9605 15.1207V11.3598C59.7302 11.59 59.3464 11.8203 58.9626 12.0506C58.2718 12.3576 57.8881 12.5878 57.8881 12.5878C57.274 12.9716 56.967 13.5856 56.967 14.43C56.967 14.8905 57.0438 15.2743 57.274 15.658C57.5043 16.0418 57.8113 16.2721 58.2719 16.2721C58.6556 16.1953 59.1929 15.8883 59.9605 15.1207Z" fill="#333333"/>
<path d="M77.2305 10.976V15.044C77.2305 15.5813 77.3073 16.0418 77.5375 16.2721C77.7678 16.5023 78.1516 16.5791 78.6889 16.5791V17.4234H72.5485V16.5791C73.2393 16.5023 73.623 16.1953 73.8533 15.5045C74.0068 15.1208 74.0068 14.5067 74.0068 13.6624V11.3598C74.0068 9.4409 73.4695 8.44309 72.395 8.44309C71.6274 8.44309 70.7064 8.82686 69.6318 9.59441V14.8905C69.6318 16.0418 70.1691 16.5791 71.1669 16.5791H71.3972V17.4234H64.7962V16.5791H64.9497C65.5638 16.5791 65.9476 16.4256 66.1778 16.1186C66.3313 15.8116 66.4848 15.4278 66.4848 14.8137V9.74792C66.4848 9.21063 66.1011 8.82686 65.2568 8.5966L64.7195 8.44309V7.67554L69.1713 6.14044H69.6318V8.44309C71.7042 7.0615 73.316 6.37071 74.4674 6.37071C75.6954 6.37071 76.5397 6.98475 76.9235 8.28958C77.1538 9.05713 77.2305 9.90143 77.2305 10.976Z" fill="#333333"/>
<path d="M79.6868 17.6537L79.3797 14.3532H80.224C80.4543 14.9673 80.7613 15.5045 81.2218 15.9651C81.7591 16.4256 82.2964 16.6559 82.9105 16.6559C83.2942 16.6559 83.6013 16.5791 83.8315 16.3488C84.1385 16.1186 84.2153 15.8116 84.2153 15.5045C84.2153 15.1208 83.9083 14.6602 83.2942 14.1997C83.2175 14.1997 82.7569 13.8927 81.8359 13.2787C80.9916 12.7414 80.4543 12.2808 80.0705 11.8971C79.5332 11.283 79.303 10.669 79.303 9.90144C79.303 8.82687 79.7635 7.98257 80.6078 7.36853C81.3754 6.83125 82.2964 6.60098 83.4477 6.60098C84.4456 6.60098 85.4434 6.75449 86.3644 7.13827L86.4412 9.90144H85.5969C85.1363 8.4431 84.292 7.67555 83.1407 7.67555C82.3732 7.67555 81.9126 7.98257 81.9126 8.67336C81.9126 9.21065 82.2197 9.59442 82.7569 10.055L84.292 10.8993C85.2131 11.4365 85.8271 11.8971 86.2109 12.2808C86.7482 12.8949 87.0552 13.5857 87.0552 14.43C87.0552 15.7348 86.5179 16.7326 85.4434 17.2699C84.9061 17.5769 84.292 17.6537 83.678 17.6537C82.8337 17.6537 82.1429 17.5769 81.3754 17.4234C81.1451 17.3467 80.9148 17.3467 80.9148 17.3467C80.7613 17.3467 80.6078 17.4234 80.3775 17.6537H79.6868Z" fill="#333333"/>
<path d="M88.2065 12.2041C88.2065 9.97817 89.2811 8.28956 91.4302 7.215C92.4281 6.67771 93.5026 6.44745 94.7307 6.44745C96.4961 6.44745 98.0312 6.98473 99.1825 7.98255C100.334 8.98036 100.948 10.2852 100.948 11.897C100.948 14.1997 99.8733 15.8883 97.7241 16.9629C96.7263 17.5001 95.575 17.7304 94.3469 17.7304C91.8908 17.7304 90.0487 16.8094 88.9741 15.044C88.4368 14.1997 88.2065 13.2786 88.2065 12.2041ZM91.6605 10.669C91.6605 11.9738 91.8908 13.2786 92.4281 14.3532C93.0421 15.8115 93.9632 16.5023 95.1145 16.5023C96.7263 16.5023 97.4939 15.4278 97.4939 13.2786C97.4939 11.59 97.1869 10.2084 96.5728 9.13387C95.9588 8.0593 95.1145 7.52202 94.1167 7.52202C92.4281 7.59877 91.6605 8.59658 91.6605 10.669Z" fill="#333333"/>
<path d="M113.996 10.976V15.044C113.996 15.5813 114.073 16.0418 114.303 16.2721C114.533 16.5023 114.917 16.5791 115.454 16.5791V17.4234H109.314V16.5791C110.005 16.5023 110.388 16.1953 110.619 15.5045C110.772 15.1208 110.772 14.5067 110.772 13.6624V11.3598C110.772 9.4409 110.235 8.44309 109.16 8.44309C108.393 8.44309 107.472 8.82686 106.397 9.59441V14.8905C106.397 16.0418 106.934 16.5791 107.932 16.5791H108.163V17.4234H101.562V16.5791H101.715C102.329 16.5791 102.713 16.4256 102.943 16.1186C103.097 15.8116 103.25 15.4278 103.25 14.8137V9.74792C103.25 9.21063 102.866 8.82686 102.022 8.5966L101.485 8.44309V7.67554L105.937 6.14044H106.397V8.44309C108.47 7.0615 110.081 6.37071 111.233 6.37071C112.461 6.37071 113.305 6.98475 113.689 8.28958C113.842 9.05713 113.996 9.90143 113.996 10.976Z" fill="#333333"/>
<path d="M116.375 17.6537L116.068 14.3532H116.913C117.143 14.9673 117.45 15.5045 117.91 15.9651C118.448 16.4256 118.985 16.6559 119.599 16.6559C119.983 16.6559 120.29 16.5791 120.52 16.3488C120.827 16.1186 120.904 15.8116 120.904 15.5045C120.904 15.1208 120.597 14.6602 119.983 14.1997C119.906 14.1997 119.445 13.8927 118.524 13.2787C117.68 12.7414 117.143 12.2808 116.759 11.8971C116.222 11.283 115.991 10.669 115.991 9.90144C115.991 8.82687 116.452 7.98257 117.296 7.36853C118.064 6.83125 118.985 6.60098 120.136 6.60098C121.134 6.60098 122.132 6.75449 123.053 7.13827L123.13 9.90144H122.285C121.825 8.4431 120.981 7.67555 119.829 7.67555C119.062 7.67555 118.601 7.98257 118.601 8.67336C118.601 9.21065 118.908 9.59442 119.445 10.055L120.981 10.8993C121.902 11.4365 122.516 11.8971 122.899 12.2808C123.437 12.8949 123.744 13.5857 123.744 14.43C123.744 15.7348 123.206 16.7326 122.132 17.2699C121.595 17.5769 120.981 17.6537 120.366 17.6537C119.522 17.6537 118.831 17.5769 118.064 17.4234C117.834 17.3467 117.603 17.3467 117.603 17.3467C117.45 17.3467 117.296 17.4234 117.066 17.6537H116.375Z" fill="#333333"/>
<path d="M146.463 12.7414H147.538C147.308 14.2765 146.847 15.8883 146.079 17.5002C145.696 17.3467 145.158 17.3467 144.544 17.3467C144.237 17.3467 143.547 17.4234 142.549 17.5769C141.551 17.7304 140.707 17.8072 140.093 17.8072C138.404 17.8072 136.869 17.4234 135.411 16.7326C133.875 15.9651 132.724 14.9673 131.803 13.5857C130.959 12.2808 130.575 10.8992 130.575 9.2874C130.575 6.908 131.573 4.91237 133.492 3.22376C135.411 1.53516 137.79 0.767609 140.63 0.767609C141.781 0.767609 142.856 0.921118 143.777 1.22814C145.005 1.61191 145.619 1.84218 145.619 1.84218C145.849 1.84218 146.003 1.76542 146.156 1.61191H146.77L147 6.14045H146.003C145.465 4.37509 144.468 3.22376 143.086 2.60972C142.395 2.30271 141.628 2.1492 140.783 2.1492C138.941 2.1492 137.406 2.76323 136.255 4.06807C135.103 5.3729 134.489 7.06151 134.489 9.05713C134.489 10.362 134.796 11.59 135.334 12.7414C135.948 13.8927 136.715 14.8905 137.79 15.5045C138.788 16.1953 139.939 16.5023 141.09 16.5023C142.318 16.5023 143.393 16.1186 144.391 15.4278C145.235 14.8137 145.926 13.8927 146.463 12.7414Z" fill="#333333"/>
<path d="M159.128 15.5046L159.511 16.1186C159.128 16.5024 158.667 16.8861 158.13 17.1932C157.516 17.5002 156.979 17.7304 156.518 17.7304C155.52 17.7304 154.906 17.1932 154.676 16.1186C154.062 16.7326 153.525 17.1164 153.218 17.2699C152.68 17.5769 152.143 17.7304 151.452 17.7304C150.531 17.7304 149.84 17.5002 149.303 17.0397C148.689 16.5791 148.459 15.8883 148.459 14.9673C148.459 14.123 148.689 13.4322 149.226 12.8949C149.61 12.5111 150.454 12.1273 151.682 11.6668C152.911 11.283 153.908 10.8225 154.599 10.2085V9.21066C154.599 8.75013 154.446 8.2896 154.139 7.98258C153.832 7.67556 153.448 7.4453 152.987 7.4453C152.066 7.4453 151.606 7.90583 151.606 8.90364C151.606 9.05715 151.606 9.21066 151.606 9.44092L148.689 10.4387C148.612 10.1317 148.612 9.8247 148.612 9.51768C148.612 8.90364 148.843 8.36636 149.303 7.90583C149.764 7.4453 150.378 7.06152 151.299 6.75451C152.143 6.44749 152.911 6.29398 153.601 6.29398C155.06 6.29398 156.211 6.7545 157.132 7.67556C157.593 8.13609 157.823 8.75013 157.823 9.51768V14.5835C157.823 15.351 157.976 15.8116 158.36 15.8116C158.59 15.8116 158.897 15.6581 159.128 15.5046ZM154.676 15.1208V11.3598C154.446 11.5901 154.062 11.8203 153.678 12.0506C152.987 12.3576 152.603 12.5879 152.603 12.5879C151.989 12.9716 151.682 13.5857 151.682 14.43C151.682 14.8905 151.759 15.2743 151.989 15.6581C152.22 16.0418 152.527 16.2721 152.987 16.2721C153.371 16.1953 153.908 15.8883 154.676 15.1208Z" fill="#333333"/>
<path d="M166.803 16.5791V17.4234H159.588V16.5791H159.742C160.356 16.5791 160.74 16.4256 160.97 16.1186C161.124 15.8883 161.2 15.4278 161.2 14.8137V10.5922C161.2 10.0549 161.124 9.67116 161.047 9.51765C160.893 9.21063 160.663 9.05712 160.203 8.82686L159.512 8.51984V7.82904L163.81 6.21719H164.347L164.424 9.13388C164.731 8.51984 164.961 8.05931 165.115 7.9058C165.422 7.36852 165.729 6.98474 165.959 6.75448C166.189 6.60097 166.42 6.52421 166.727 6.52421C166.957 6.52421 167.11 6.52421 167.264 6.60097L169.336 7.36852C169.029 8.51984 168.569 9.4409 168.108 10.1317C166.957 9.67116 166.266 9.4409 165.959 9.4409C165.499 9.4409 164.961 9.82467 164.424 10.5922V14.8137C164.424 15.4278 164.578 15.8883 164.808 16.1953C165.038 16.4256 165.499 16.5791 166.189 16.5791H166.803Z" fill="#333333"/>
<path d="M173.634 17.3466V20.1098C173.634 21.2611 173.942 21.9519 174.556 22.1822C174.939 22.3357 175.477 22.4125 176.167 22.4892V23.3335H168.722V22.4892H169.029C169.95 22.4892 170.411 21.9519 170.411 20.8006V9.82467C170.411 9.13388 170.181 8.7501 169.72 8.59659L168.799 8.28957V7.59878L172.944 6.21719H173.634V8.7501C174.402 8.13606 174.863 7.82904 175.016 7.67554C175.553 7.29176 176.014 6.98474 176.551 6.83123C177.012 6.67772 177.549 6.52421 178.01 6.52421C179.698 6.52421 180.926 7.36852 181.694 8.98037C182.078 9.74792 182.231 10.5922 182.231 11.5133C182.231 13.8159 181.31 15.658 179.545 16.8861C178.624 17.5002 177.549 17.8072 176.321 17.8072C175.553 17.7304 174.632 17.5769 173.634 17.3466ZM173.634 9.74792V15.4278C174.479 16.2721 175.323 16.7326 176.321 16.7326C177.242 16.7326 177.933 16.2721 178.393 15.4278C178.777 14.737 179.007 13.8927 179.007 12.8949C179.007 11.8203 178.777 10.8225 178.393 9.97818C177.856 8.90361 177.088 8.36633 176.167 8.36633C175.477 8.44308 174.632 8.90361 173.634 9.74792Z" fill="#333333"/>
<path d="M193.207 13.8927L193.821 14.3532C193.13 15.2743 192.363 16.1186 191.442 16.6558C190.367 17.3466 189.369 17.6537 188.295 17.6537C186.376 17.6537 184.994 16.8094 184.15 15.044C183.766 14.1997 183.536 13.2786 183.536 12.2808C183.536 9.90142 184.457 8.21281 186.222 7.13825C187.067 6.67772 188.064 6.3707 189.139 6.3707C190.521 6.3707 191.595 6.75447 192.439 7.59877C193.053 8.21281 193.437 8.90361 193.591 9.74791C193.668 10.1317 193.744 10.3619 193.744 10.5155C193.821 10.8225 193.975 10.976 194.205 11.0527V11.8203H186.99C187.067 12.7413 187.374 13.5857 187.911 14.3532C188.525 15.1975 189.293 15.658 190.137 15.658C190.904 15.7348 191.979 15.1207 193.207 13.8927ZM186.683 10.8992H190.367C190.367 8.7501 189.676 7.67553 188.525 7.67553C187.757 7.67553 187.143 8.21281 186.836 9.28738C186.683 9.67115 186.683 10.0549 186.683 10.4387C186.683 10.5922 186.683 10.7457 186.683 10.8992Z" fill="#333333"/>
<path d="M199.04 8.21284V14.5067C199.04 15.4278 199.424 15.8883 200.268 15.8883C200.882 15.8883 201.496 15.4278 202.264 14.5835L202.648 15.2743C202.264 15.9651 201.727 16.5024 201.036 16.9629C200.345 17.4234 199.578 17.6537 198.81 17.6537C196.814 17.6537 195.893 16.5791 195.893 14.43V8.13609H194.512V7.52205C195.279 7.21503 196.047 6.67774 196.814 5.83344C197.582 5.06589 198.119 4.22159 198.349 3.45404H199.117V6.7545H202.494L202.11 8.21284H199.04Z" fill="#333333"/>
<path d="M203.185 17.6537L202.878 14.3532H203.722C203.952 14.9673 204.259 15.5045 204.72 15.9651C205.257 16.4256 205.794 16.6559 206.408 16.6559C206.792 16.6559 207.099 16.5791 207.33 16.3488C207.637 16.1186 207.713 15.8116 207.713 15.5045C207.713 15.1208 207.406 14.6602 206.792 14.1997C206.716 14.1997 206.255 13.8927 205.334 13.2787C204.49 12.7414 203.952 12.2808 203.569 11.8971C203.031 11.283 202.801 10.669 202.801 9.90144C202.801 8.82687 203.262 7.98257 204.106 7.36853C204.873 6.83125 205.794 6.60098 206.946 6.60098C207.944 6.60098 208.941 6.75449 209.862 7.13827L209.939 9.90144H209.095C208.634 8.4431 207.79 7.67555 206.639 7.67555C205.871 7.67555 205.411 7.98257 205.411 8.67336C205.411 9.21065 205.718 9.59442 206.255 10.055L207.79 10.8993C208.711 11.4365 209.325 11.8971 209.709 12.2808C210.246 12.8949 210.553 13.5857 210.553 14.43C210.553 15.7348 210.016 16.7326 208.941 17.2699C208.404 17.5769 207.79 17.6537 207.176 17.6537C206.332 17.6537 205.641 17.5769 204.873 17.4234C204.643 17.3467 204.413 17.3467 204.413 17.3467C204.259 17.3467 204.106 17.4234 203.876 17.6537H203.185Z" fill="#333333"/>
<path d="M76.1562 30.0879C76.1562 30.7787 75.926 31.3928 75.3887 31.7765C74.8514 32.1603 74.1606 32.3906 73.2396 32.3906C72.2418 32.3906 71.551 32.2371 71.0137 32.0068V31.0857C71.3207 31.2393 71.7045 31.316 72.0882 31.3928C72.472 31.4695 72.8558 31.5463 73.2396 31.5463C73.8536 31.5463 74.3909 31.3928 74.6979 31.1625C75.0049 30.9322 75.1584 30.5485 75.1584 30.1647C75.1584 29.8577 75.0817 29.6274 75.0049 29.4739C74.9282 29.3204 74.6979 29.0901 74.4676 28.9366C74.2374 28.7831 73.7768 28.6296 73.2396 28.3993C72.472 28.0923 71.9347 27.7853 71.6277 27.4015C71.3207 27.0177 71.1672 26.5572 71.1672 25.9432C71.1672 25.3291 71.3974 24.7918 71.858 24.4081C72.3185 24.0243 72.9325 23.8708 73.7768 23.8708C74.6211 23.8708 75.3119 24.0243 76.0027 24.3313L75.6957 25.1756C75.0049 24.8686 74.3909 24.7151 73.7001 24.7151C73.1628 24.7151 72.779 24.7918 72.5488 25.0221C72.2417 25.2524 72.0882 25.5594 72.0882 25.9432C72.0882 26.2502 72.165 26.4805 72.2417 26.634C72.3185 26.7875 72.5488 27.0177 72.779 27.1712C73.0093 27.3248 73.3931 27.4783 73.9304 27.7085C74.7747 28.0155 75.3887 28.3226 75.6957 28.7063C76.0027 29.0901 76.1562 29.5506 76.1562 30.0879Z" fill="#333333"/>
<path d="M77.4609 24.4848C77.4609 24.2546 77.5377 24.1011 77.6144 24.0243C77.6912 23.9475 77.8447 23.8708 77.9982 23.8708C78.1517 23.8708 78.3052 23.9475 78.382 24.0243C78.4587 24.1011 78.5355 24.2546 78.5355 24.4848C78.5355 24.7151 78.4587 24.8686 78.382 24.9454C78.3052 25.0221 78.1517 25.0989 77.9982 25.0989C77.8447 25.0989 77.6912 25.0221 77.6144 24.9454C77.5377 24.7918 77.4609 24.6383 77.4609 24.4848ZM78.4587 32.3138H77.5377V26.1734H78.4587V32.3138Z" fill="#333333"/>
<path d="M81.299 32.3138H80.3779V23.5638H81.299V32.3138Z" fill="#333333"/>
<path d="M84.0619 29.1669C84.2154 28.9366 84.4457 28.6296 84.8295 28.2458L86.8251 26.1734H87.8997L85.3668 28.7831L88.0532 32.3138H86.9019L84.7527 29.3971L84.0619 30.0112V32.3138H83.1409V23.5638H84.0619V28.1691C84.0619 28.3993 84.0619 28.7063 84.0619 29.1669Z" fill="#333333"/>
<path d="M91.5837 30.1647C91.5837 29.7042 91.7372 29.2436 91.9675 28.8598C92.1978 28.4761 92.6583 28.0923 93.3491 27.7085C93.0421 27.3248 92.8118 27.0945 92.7351 26.8642C92.6583 26.7107 92.5048 26.4804 92.428 26.3269C92.3513 26.0967 92.3513 25.9432 92.3513 25.7129C92.3513 25.1756 92.5048 24.7151 92.8886 24.4081C93.2724 24.101 93.7329 23.9475 94.4237 23.9475C95.0377 23.9475 95.4982 24.101 95.882 24.4081C96.2658 24.7151 96.4193 25.1756 96.4193 25.7129C96.4193 26.0967 96.2658 26.4805 96.0355 26.7875C95.8053 27.0945 95.3447 27.4783 94.8074 27.7853L97.1101 30.0112C97.3404 29.7809 97.4939 29.4739 97.6474 29.1669C97.8009 28.8598 97.8776 28.4761 97.9544 28.1691H98.8754C98.6452 29.2436 98.2614 30.0879 97.7241 30.6252L99.4127 32.2371H98.1079L97.0333 31.2392C96.5728 31.623 96.1123 31.93 95.6517 32.0836C95.1912 32.2371 94.6539 32.3138 94.1167 32.3138C93.3491 32.3138 92.6583 32.0836 92.2745 31.6998C91.814 31.3928 91.5837 30.8555 91.5837 30.1647ZM94.1934 31.5463C95.1145 31.5463 95.882 31.2392 96.4193 30.702L93.9631 28.3226C93.5794 28.5528 93.2723 28.7831 93.1188 28.9366C92.9653 29.0901 92.8118 29.3204 92.7351 29.4739C92.6583 29.6274 92.5816 29.8577 92.5816 30.0879C92.5816 30.5485 92.7351 30.8555 93.0421 31.1625C93.2723 31.4695 93.6561 31.5463 94.1934 31.5463ZM93.2724 25.7129C93.2724 25.9432 93.3491 26.2502 93.5026 26.4804C93.6561 26.7107 93.8864 27.0177 94.1934 27.3248C94.6539 27.0177 95.0377 26.7875 95.1912 26.5572C95.3447 26.3269 95.4982 26.0199 95.4982 25.7129C95.4982 25.4059 95.4215 25.1756 95.1912 25.0221C94.961 24.8686 94.7307 24.7151 94.4237 24.7151C94.1167 24.7151 93.8096 24.7918 93.5794 25.0221C93.4259 25.1756 93.2724 25.4059 93.2724 25.7129Z" fill="#333333"/>
<path d="M105.784 32.3138H104.863V24.9453H102.253V24.101H108.393V24.9453H105.784V32.3138Z" fill="#333333"/>
<path d="M112.154 26.0199C112.461 26.0199 112.691 26.0199 112.922 26.0967L112.768 26.941C112.538 26.8642 112.308 26.8642 112.077 26.8642C111.617 26.8642 111.156 27.0945 110.773 27.4783C110.389 27.862 110.235 28.3993 110.235 29.0133V32.3138H109.314V26.1734H110.082L110.159 27.3247H110.235C110.466 26.941 110.773 26.634 111.08 26.4037C111.387 26.1734 111.77 26.0199 112.154 26.0199Z" fill="#333333"/>
<path d="M113.919 24.4848C113.919 24.2546 113.996 24.1011 114.073 24.0243C114.15 23.9475 114.303 23.8708 114.457 23.8708C114.61 23.8708 114.764 23.9475 114.84 24.0243C114.917 24.1011 114.994 24.2546 114.994 24.4848C114.994 24.7151 114.917 24.8686 114.84 24.9454C114.764 25.0221 114.61 25.0989 114.457 25.0989C114.303 25.0989 114.15 25.0221 114.073 24.9454C113.919 24.7918 113.919 24.6383 113.919 24.4848ZM114.917 32.3138H113.996V26.1734H114.917V32.3138Z" fill="#333333"/>
<path d="M119.6 26.0199C120.444 26.0199 121.058 26.3269 121.518 26.8642C121.979 27.4015 122.209 28.1691 122.209 29.2436C122.209 30.3182 121.979 31.009 121.518 31.623C121.058 32.1603 120.444 32.4673 119.6 32.4673C119.216 32.4673 118.832 32.3906 118.525 32.2371C118.218 32.0836 117.911 31.8533 117.681 31.5463H117.604L117.374 32.3138H116.683V23.5638H117.604V25.7129C117.604 26.1734 117.604 26.634 117.527 27.0177H117.604C118.141 26.3269 118.755 26.0199 119.6 26.0199ZM119.523 26.7875C118.909 26.7875 118.448 26.941 118.141 27.3248C117.834 27.7085 117.757 28.3226 117.757 29.1669C117.757 30.0112 117.911 30.6252 118.218 31.009C118.525 31.3928 118.986 31.5463 119.6 31.5463C120.137 31.5463 120.597 31.316 120.904 30.9322C121.211 30.5485 121.288 29.9344 121.288 29.1669C121.288 28.3993 121.135 27.7853 120.904 27.4015C120.674 27.0177 120.06 26.7875 119.523 26.7875Z" fill="#333333"/>
<path d="M127.505 32.3138L127.351 31.4695H127.275C126.968 31.8533 126.661 32.0836 126.353 32.2371C126.046 32.3906 125.663 32.4673 125.202 32.4673C124.588 32.4673 124.128 32.3138 123.744 32.0068C123.36 31.6998 123.207 31.2393 123.207 30.6252C123.207 29.3971 124.204 28.7063 126.2 28.7063H127.275V28.3226C127.275 27.862 127.198 27.4783 126.968 27.248C126.737 27.0177 126.43 26.8642 125.97 26.8642C125.432 26.8642 124.895 27.0177 124.204 27.3248L123.897 26.634C124.204 26.4805 124.511 26.3269 124.895 26.2502C125.279 26.1734 125.586 26.0967 125.97 26.0967C126.737 26.0967 127.275 26.2502 127.582 26.5572C127.965 26.8642 128.119 27.4015 128.119 28.0923V32.3138H127.505ZM125.356 31.623C125.97 31.623 126.43 31.4695 126.737 31.1625C127.044 30.8555 127.198 30.395 127.198 29.8577V29.3204L126.277 29.3971C125.509 29.3971 124.972 29.5506 124.665 29.7809C124.358 30.0112 124.204 30.3182 124.204 30.702C124.204 31.009 124.281 31.316 124.511 31.4695C124.742 31.5463 125.049 31.623 125.356 31.623Z" fill="#333333"/>
<path d="M130.959 32.3138H130.038V23.5638H130.959V32.3138Z" fill="#333333"/>
<path d="M139.325 24.7918C138.404 24.7918 137.714 25.0989 137.176 25.7129C136.639 26.3269 136.409 27.1712 136.409 28.1691C136.409 29.2436 136.639 30.0879 137.176 30.6252C137.714 31.2393 138.404 31.4695 139.325 31.4695C139.863 31.4695 140.553 31.3928 141.321 31.1625V32.0068C140.784 32.2371 140.016 32.3138 139.249 32.3138C138.021 32.3138 137.099 31.93 136.409 31.2393C135.718 30.4717 135.411 29.4739 135.411 28.0923C135.411 27.248 135.564 26.4805 135.871 25.8664C136.178 25.2524 136.639 24.7151 137.253 24.4081C137.867 24.1011 138.558 23.8708 139.402 23.8708C140.246 23.8708 141.014 24.0243 141.628 24.3313L141.244 25.1756C140.553 24.9454 139.939 24.7918 139.325 24.7918Z" fill="#333333"/>
<path d="M146.617 32.3138L146.464 31.4695H146.387C146.08 31.8533 145.773 32.0836 145.466 32.2371C145.159 32.3906 144.775 32.4673 144.314 32.4673C143.7 32.4673 143.24 32.3138 142.856 32.0068C142.472 31.6998 142.319 31.2393 142.319 30.6252C142.319 29.3971 143.317 28.7063 145.312 28.7063H146.387V28.3226C146.387 27.862 146.31 27.4783 146.08 27.248C145.85 27.0177 145.543 26.8642 145.082 26.8642C144.545 26.8642 144.007 27.0177 143.317 27.3248L143.01 26.634C143.317 26.4805 143.624 26.3269 144.007 26.2502C144.391 26.1734 144.698 26.0967 145.082 26.0967C145.85 26.0967 146.387 26.2502 146.694 26.5572C147.078 26.8642 147.231 27.4015 147.231 28.0923V32.3138H146.617ZM144.468 31.623C145.082 31.623 145.543 31.4695 145.85 31.1625C146.157 30.8555 146.31 30.395 146.31 29.8577V29.3204L145.389 29.3971C144.621 29.3971 144.084 29.5506 143.777 29.7809C143.47 30.0112 143.317 30.3182 143.317 30.702C143.317 31.009 143.393 31.316 143.624 31.4695C143.854 31.5463 144.084 31.623 144.468 31.623Z" fill="#333333"/>
<path d="M151.913 26.0199C152.22 26.0199 152.45 26.0199 152.68 26.0967L152.527 26.941C152.297 26.8642 152.066 26.8642 151.836 26.8642C151.376 26.8642 150.915 27.0945 150.531 27.4783C150.148 27.862 149.994 28.3993 149.994 29.0133V32.3138H149.073V26.1734H149.841L149.917 27.3247H149.994C150.224 26.941 150.531 26.634 150.838 26.4037C151.145 26.1734 151.529 26.0199 151.913 26.0199Z" fill="#333333"/>
<path d="M156.518 32.3906C156.135 32.3906 155.751 32.3138 155.444 32.1603C155.137 32.0068 154.83 31.7765 154.6 31.4695H154.523C154.6 31.8533 154.6 32.1603 154.6 32.4673V35.0002H153.678V26.0967H154.446L154.6 26.941H154.676C154.907 26.634 155.214 26.3269 155.521 26.1734C155.828 26.0199 156.211 25.9432 156.595 25.9432C157.439 25.9432 158.053 26.2502 158.514 26.7875C158.975 27.3248 159.205 28.0923 159.205 29.1669C159.205 30.1647 158.975 30.9322 158.514 31.5463C157.977 32.0836 157.363 32.3906 156.518 32.3906ZM156.442 26.7875C155.828 26.7875 155.367 26.941 155.06 27.3248C154.753 27.7085 154.6 28.2458 154.6 29.0134V29.1669C154.6 30.0112 154.753 30.6252 155.06 31.009C155.367 31.3928 155.828 31.5463 156.442 31.5463C156.979 31.5463 157.363 31.316 157.67 30.9322C157.977 30.4717 158.13 29.9344 158.13 29.1669C158.13 28.3993 157.977 27.7853 157.67 27.4015C157.363 27.0177 156.979 26.7875 156.442 26.7875Z" fill="#333333"/>
<path d="M163.196 32.3906C162.275 32.3906 161.585 32.0835 161.047 31.5463C160.51 31.009 160.28 30.2414 160.28 29.2436C160.28 28.2458 160.51 27.4783 161.047 26.8642C161.585 26.2502 162.199 26.0199 163.043 26.0199C163.811 26.0199 164.425 26.2502 164.885 26.7875C165.346 27.3247 165.576 27.9388 165.576 28.7831V29.3971H161.354C161.354 30.0879 161.585 30.702 161.892 31.009C162.275 31.3928 162.736 31.5463 163.35 31.5463C164.041 31.5463 164.655 31.3927 165.346 31.1625V32.0068C165.039 32.1603 164.732 32.2371 164.425 32.3138C163.964 32.3906 163.657 32.3906 163.196 32.3906ZM162.966 26.7875C162.506 26.7875 162.045 26.941 161.815 27.248C161.508 27.555 161.354 28.0155 161.278 28.5528H164.501C164.501 27.9388 164.348 27.4783 164.118 27.1712C163.811 26.941 163.427 26.7875 162.966 26.7875Z" fill="#333333"/>
<path d="M168.952 31.623C169.106 31.623 169.259 31.623 169.413 31.623C169.566 31.623 169.72 31.5463 169.797 31.5463V32.2371C169.72 32.3138 169.566 32.3138 169.336 32.3906C169.106 32.3906 168.952 32.4673 168.799 32.4673C167.571 32.4673 167.034 31.8533 167.034 30.5485V26.8642H166.189V26.4037L167.034 26.0199L167.417 24.7151H167.955V26.0967H169.72V26.8642H167.955V30.4717C167.955 30.8555 168.031 31.1625 168.185 31.316C168.338 31.4695 168.645 31.623 168.952 31.623Z" fill="#333333"/>
<path d="M174.863 30.6252C174.863 31.1625 174.632 31.623 174.249 31.93C173.865 32.2371 173.251 32.3906 172.483 32.3906C171.639 32.3906 171.025 32.2371 170.564 32.0068V31.1625C170.871 31.316 171.178 31.3928 171.486 31.5463C171.793 31.6998 172.176 31.6998 172.483 31.6998C172.944 31.6998 173.328 31.623 173.635 31.4695C173.865 31.316 174.018 31.0857 174.018 30.7787C174.018 30.5485 173.942 30.3182 173.711 30.1647C173.481 30.0112 173.097 29.7809 172.483 29.5506C171.946 29.3204 171.486 29.1669 171.255 29.0134C171.025 28.8599 170.871 28.7063 170.718 28.4761C170.564 28.2458 170.564 28.0155 170.564 27.7853C170.564 27.248 170.795 26.8642 171.178 26.634C171.562 26.3269 172.176 26.1734 172.867 26.1734C173.558 26.1734 174.172 26.3269 174.786 26.5572L174.479 27.3248C173.865 27.0945 173.328 26.941 172.79 26.941C172.33 26.941 172.023 27.0177 171.793 27.1712C171.562 27.3248 171.486 27.4783 171.486 27.7085C171.486 27.862 171.562 28.0155 171.639 28.0923C171.716 28.1691 171.869 28.3226 172.023 28.3993C172.176 28.4761 172.56 28.6296 173.097 28.8599C173.865 29.0901 174.325 29.3971 174.556 29.6274C174.786 29.8577 174.863 30.1647 174.863 30.6252Z" fill="#333333"/>
</svg>
