<svg width="38" height="38" viewBox="0 0 38 38" fill="none" xmlns="http://www.w3.org/2000/svg">
<path d="M37.8048 0.460602H0.471497V37.7939H37.8048V0.460602Z" fill="#FE681B"/>
<mask id="mask0" mask-type="alpha" maskUnits="userSpaceOnUse" x="0" y="0" width="38" height="38">
<path d="M37.8048 0.460571H0.471497V37.7939H37.8048V0.460571Z" fill="#FE681B"/>
</mask>
<g mask="url(#mask0)">
<path d="M37.6918 -0.0725073L-0.0202484 37.6395L0.608285 38.268L38.3203 0.556026L37.6918 -0.0725073Z" fill="#FFB667"/>
</g>
<path d="M9.3602 5.61615V5.26059H15.0491V5.52726H14.6935C14.338 5.52726 14.1602 5.61615 13.9824 5.70503C13.8935 5.79392 13.7158 5.88281 13.6269 6.06059C13.538 6.14948 13.538 6.50503 13.538 7.03837V12.3717C13.538 13.3495 13.4491 14.1495 13.2713 14.5939C13.0935 15.0384 12.738 15.4828 12.2046 15.7495C11.6713 16.0161 11.0491 16.1939 10.338 16.1939C9.44909 16.1939 8.73798 15.9273 8.20465 15.4828C7.67132 15.0384 7.40465 14.505 7.40465 13.8828C7.40465 13.5273 7.49354 13.2606 7.7602 12.9939C8.02687 12.7273 8.29354 12.6384 8.5602 12.6384C8.91576 12.6384 9.18243 12.7273 9.3602 12.905C9.53798 13.0828 9.71576 13.3495 9.71576 13.6161C9.71576 13.7939 9.71576 13.8828 9.62687 13.9717C9.62687 14.0606 9.53798 14.1495 9.3602 14.3273C9.18243 14.505 9.18243 14.6828 9.18243 14.7717C9.18243 14.9495 9.27132 15.0384 9.3602 15.1273C9.53798 15.305 9.80465 15.305 10.1602 15.305C10.4269 15.305 10.6046 15.2161 10.6935 15.1273C10.8713 15.0384 10.9602 14.8606 10.9602 14.5939C10.9602 14.3273 11.0491 13.705 11.0491 12.5495V7.12726C11.0491 6.59392 11.0491 6.23837 10.9602 6.14948C10.8713 6.06059 10.7824 5.88281 10.6046 5.79392C10.4269 5.70503 10.1602 5.61615 9.89354 5.61615H9.3602Z" fill="#FFB667"/>
<path d="M29.8046 21.5273V25.2606H29.5379C29.2712 24.2828 28.9157 23.5717 28.2935 23.0384C27.6712 22.5051 26.9601 22.2384 26.1601 22.2384C25.5379 22.2384 24.9157 22.4162 24.2935 22.7717C23.7601 23.1273 23.3157 23.6606 23.049 24.2828C22.6935 25.0828 22.5157 25.9717 22.5157 26.9495C22.5157 27.9273 22.6046 28.7273 22.8712 29.5273C23.1379 30.3273 23.4935 30.8606 24.0268 31.3051C24.5601 31.7495 25.1824 31.9273 25.9824 31.9273C26.6935 31.9273 27.2268 31.7495 27.849 31.4828C28.3824 31.2162 29.0046 30.6828 29.6268 29.9717V30.8606C29.0046 31.4828 28.3824 31.9273 27.7601 32.1939C27.1379 32.4606 26.3379 32.6384 25.5379 32.6384C24.3824 32.6384 23.4046 32.3717 22.5157 31.9273C21.6268 31.4828 20.9157 30.8606 20.4712 29.9717C20.0268 29.0828 19.7601 28.1939 19.7601 27.2162C19.7601 26.2384 20.0268 25.2606 20.5601 24.2828C21.0935 23.3939 21.8046 22.6828 22.6935 22.1495C23.5824 21.6162 24.5601 21.4384 25.5379 21.4384C26.249 21.4384 27.049 21.6162 27.9379 21.8828C28.3824 22.0606 28.7379 22.1495 28.8268 22.1495C29.0046 22.1495 29.1824 22.0606 29.2712 21.9717C29.3601 21.8828 29.449 21.6162 29.5379 21.3495H29.8046V21.5273Z" fill="#FFB667"/>
</svg>
