<?xml version="1.0" encoding="utf-8"?>
<!-- Generator: Adobe Illustrator 23.0.5, SVG Export Plug-In . SVG Version: 6.00 Build 0)  -->
<svg version="1.1" id="Layer_1" xmlns="http://www.w3.org/2000/svg" xmlns:xlink="http://www.w3.org/1999/xlink" x="0px" y="0px"
	 width="388px" height="321px" viewBox="0 0 388 321" style="enable-background:new 0 0 388 321;" xml:space="preserve">
<g>
	<path d="M29.2,272.5c-13.6-21.6-20.4-48-20.4-79.2c0-40,10.2-76,30.6-108s51.4-57.6,93-76.8l10.8,21.6C118.4,40.5,97,56.9,79,79.3
		s-27,45.2-27,68.4c0,9.6,1.2,18,3.6,25.2c12.8-10.4,27.6-15.6,44.4-15.6c21.6,0,39.8,7,54.6,21s22.2,32.6,22.2,55.8
		c0,21.6-7.4,39.8-22.2,54.6s-33,22.2-54.6,22.2C68.8,310.9,45.2,298.1,29.2,272.5z M233.2,272.5c-13.6-21.6-20.4-48-20.4-79.2
		c0-40,10.2-76,30.6-108s51.4-57.6,93-76.8l10.8,21.6C322.4,40.5,301,56.9,283,79.3s-27,45.2-27,68.4c0,9.6,1.2,18,3.6,25.2
		c12.8-10.4,27.6-15.6,44.4-15.6c21.6,0,39.8,7,54.6,21s22.2,32.6,22.2,55.8c0,21.6-7.4,39.8-22.2,54.6s-33,22.2-54.6,22.2
		C272.8,310.9,249.2,298.1,233.2,272.5z"/>
</g>
</svg>
