<svg width="90" height="90" viewBox="0 0 90 90" fill="none" xmlns="http://www.w3.org/2000/svg">
<rect x="1" y="1" width="88" height="88" rx="7" stroke="#FE681B" stroke-width="2"/>
<path d="M57 27H25V39H57V27Z" fill="#FE681B"/>
<path d="M33.3301 31.5913H30.771V34.1504H33.3301V31.5913Z" fill="black"/>
<path d="M42.2564 31.5913H39.6973V34.1504H42.2564V31.5913Z" fill="black"/>
<path d="M51.1948 31.5913H48.6357V34.1504H51.1948V31.5913Z" fill="black"/>
<path d="M76.7246 38.7421H63.9536V16.2734C63.9536 15.502 63.4393 15 62.6802 15H19.2734C18.5143 15 18 15.5143 18 16.2734V49.4683C18 50.2397 18.5143 50.7417 19.2734 50.7417H26.9385V57.1211C26.9385 57.6354 27.1956 58.0149 27.7099 58.2721C28.2854 58.5292 28.8609 58.2721 29.118 58.0149L36.3912 50.7417H39.7095V67.4677C39.7095 68.2391 40.2238 68.7411 40.9829 68.7411H62.5577L68.4351 74.6185C69.3657 75.4878 70.6024 74.7532 70.6024 73.6022V68.6187H76.7246C77.496 68.6187 77.9981 68.1044 77.9981 67.3452V40.0155C77.9981 39.2564 77.4838 38.7421 76.7246 38.7421ZM35.877 48.1948C35.4974 48.1948 35.2403 48.3173 34.9831 48.5744L29.4853 54.06V49.4683C29.4853 48.6969 28.9711 48.1948 28.2119 48.1948H20.5591V17.5591H61.4068V48.1948H35.877ZM75.439 66.1943H69.3167C68.5453 66.1943 68.0433 66.7085 68.0433 67.4677V70.6635L63.9536 66.5738C63.6965 66.3167 63.4394 66.1943 63.0598 66.1943H42.2564V50.7417H62.6802C63.4516 50.7417 63.9536 50.2274 63.9536 49.4683V41.3012H75.439V66.1943Z" fill="black"/>
</svg>
