<svg width="90" height="90" viewBox="0 0 90 90" fill="none" xmlns="http://www.w3.org/2000/svg">
<rect x="1" y="1" width="88" height="88" rx="7" stroke="#FE681B" stroke-width="2"/>
<path d="M23 49H59C61.2091 49 63 50.7909 63 53C63 55.2091 61.2091 57 59 57H23V49Z" fill="#FE681B"/>
<path d="M53.4219 38.0658C53.6358 38.0658 53.8069 38.0658 53.9695 38.0658C59.214 38.0658 64.4586 38.0658 69.7031 38.0658C72.8601 38.0658 75.2728 39.9566 75.8973 43.0537C76.2396 44.7562 75.7262 46.3219 74.6996 47.7164C74.5969 47.8533 74.4771 47.9817 74.3659 48.11C73.9039 48.6233 73.9124 49.0682 74.3573 49.5815C75.538 50.9162 76.1369 52.4733 75.9401 54.2529C75.769 55.7929 75.1188 57.1104 73.9039 58.1285C73.0826 58.813 73.0312 59.1039 73.5018 60.0792C74.5541 62.2609 74.0493 64.5452 72.1928 66.0852C71.3715 66.7696 71.303 67.0349 71.7137 68.0359C72.8345 70.7993 71.4912 73.7167 68.6508 74.6835C68.0262 74.8974 67.4017 75.0086 66.7258 75.0086C59.2311 74.9915 51.7279 75.0001 44.2333 75.0001C41.4698 75.0001 38.8433 74.3755 36.3536 73.1949C35.7975 72.9296 35.2585 72.6559 34.7024 72.3906C34.0607 72.0826 33.5987 72.2024 33.2651 72.827C32.6833 73.905 31.7764 74.5637 30.6214 74.9145C30.399 74.983 30.1765 75.0172 29.9455 75.0172C26.6089 75.0172 23.2722 75.0172 19.9356 75.0172C18.1389 74.9915 16.4021 73.4344 16.1112 71.6377C16.0171 71.0645 16 70.5084 16 69.9352C16 60.7123 15.9829 51.4894 16.0086 42.2666C16.0171 40.0763 17.463 38.5021 19.3452 38.1257C19.619 38.0743 19.9099 38.0658 20.1922 38.0658C24.2561 38.0658 28.32 38.0658 32.3839 38.0572C32.7346 38.0572 33.0426 38.1086 33.325 38.3567C33.8469 38.8101 34.4543 38.6989 34.9163 38.1086C36.0371 36.6712 37.1493 35.2253 38.2701 33.788C39.485 32.2223 40.6913 30.6481 41.9147 29.0996C43.8483 26.6441 44.7894 23.8636 44.7894 20.7408C44.7894 19.9708 44.7381 19.2008 44.8578 18.4393C45.1915 16.2748 47.2705 14.7091 49.4436 15.0342C50.1195 15.1369 50.7783 15.4021 51.3087 15.8385C53.8412 17.9089 55.672 20.4413 56.2966 23.7181C56.8014 26.3703 56.4763 28.9712 55.6122 31.5037C54.9277 33.5228 54.209 35.5333 53.5674 37.5696C53.5246 37.7321 53.4818 37.8776 53.4219 38.0658ZM54.9962 72.596C54.9962 72.6045 54.9962 72.6131 54.9962 72.6216C58.5039 72.6216 62.0117 72.6216 65.5195 72.6216C66.1355 72.6216 66.7515 72.6216 67.3504 72.5532C68.6936 72.3992 69.686 71.3469 69.7545 70.0635C69.8229 68.7802 68.9845 67.7193 67.6241 67.4113C67.3931 67.36 67.145 67.3429 66.914 67.2915C66.2467 67.1461 65.8702 66.6413 65.9301 65.9996C65.9815 65.3922 66.452 64.9644 67.1194 64.9473C67.7011 64.9302 68.2915 64.9473 68.8732 64.9302C69.6946 64.9131 70.4132 64.6308 70.9693 64.0233C71.688 63.2362 71.8762 62.3208 71.4827 61.3283C71.0635 60.276 70.225 59.7455 69.1128 59.6429C68.3257 59.5744 67.8124 59.0953 67.8209 58.4365C67.838 57.7435 68.3685 57.273 69.1812 57.2473C69.4807 57.2388 69.7801 57.2559 70.0796 57.2473C71.919 57.196 73.4162 55.7586 73.5788 53.9106C73.7328 52.1311 72.4837 50.4884 70.6785 50.1377C70.3448 50.0692 70.0026 50.0607 69.6689 49.9922C69.1727 49.881 68.8219 49.4275 68.7791 48.9142C68.7449 48.4437 69.0187 48.0244 69.5064 47.8191C69.7288 47.725 69.9683 47.6908 70.2165 47.6737C72.4067 47.494 73.9125 45.5519 73.536 43.3959C73.2622 41.8217 71.8078 40.564 70.1223 40.4956C68.1032 40.41 66.0756 40.4699 64.0565 40.4784C60.0525 40.487 56.0485 40.4699 52.0359 40.4528C50.8039 40.4528 50.3248 39.7854 50.7098 38.6133C51.6167 35.8584 52.5236 33.095 53.4647 30.3487C54.0978 28.5092 54.3374 26.6441 54.0294 24.7191C53.5759 21.9215 52.2242 19.6457 50.0168 17.8832C49.4436 17.4298 48.8105 17.3186 48.1432 17.6522C47.4587 17.9945 47.1678 18.5677 47.1849 19.3291C47.1935 19.7997 47.1935 20.2702 47.1935 20.7408C47.2106 24.4197 46.0642 27.705 43.8055 30.6053C40.6742 34.6179 37.56 38.639 34.4201 42.643C33.9581 43.2333 33.7271 43.8579 33.7442 44.6108C33.7784 46.3219 33.7699 48.033 33.7699 49.7441C33.7699 55.887 33.7699 62.0299 33.7527 68.1813C33.7527 68.9599 34.0607 69.4817 34.7794 69.7812C35.2414 69.9694 35.6777 70.209 36.1141 70.44C38.1589 71.5522 40.332 72.2965 42.6591 72.5446C44.1392 72.6986 45.6193 72.6559 47.0994 72.6387C49.7174 72.5789 52.3525 72.596 54.9962 72.596ZM31.3572 56.2121C31.3572 51.4381 31.3572 46.6641 31.3572 41.8901C31.3572 40.795 30.9979 40.4271 29.8942 40.4357C26.7458 40.4442 23.5973 40.4528 20.4489 40.4613C19.0201 40.4613 18.4298 41.0517 18.4298 42.489C18.4298 51.8488 18.4298 61.2171 18.4298 70.5769C18.4298 72.0056 19.0287 72.596 20.466 72.596C23.4005 72.596 26.3351 72.596 29.2696 72.596C29.4236 72.596 29.5862 72.596 29.7402 72.5789C30.7326 72.4762 31.2203 71.9971 31.3401 71.0046C31.3658 70.8079 31.3572 70.6025 31.3572 70.4057C31.3572 65.6745 31.3572 60.9433 31.3572 56.2121Z" fill="black"/>
<path d="M24.8464 68.0358C23.7513 68.0358 22.9557 67.2059 22.9557 66.1022C22.9642 65.0328 23.8369 64.1772 24.8978 64.1943C25.9501 64.2115 26.8228 65.1012 26.8057 66.1536C26.7971 67.2059 25.933 68.0358 24.8464 68.0358Z" fill="black"/>
</svg>
