<svg width="66" height="55" viewBox="0 0 66 55" fill="none" xmlns="http://www.w3.org/2000/svg">
<path d="M54.9082 25.8688C54.9082 31.6619 54.9412 37.4551 54.8752 43.2482C54.8752 44.4068 55.1061 44.9034 56.3929 44.9034C59.0654 44.9034 59.2634 45.102 59.8573 47.7834C59.9563 48.2469 60.1542 48.4455 60.5832 48.4455C60.7481 48.4455 60.9131 48.4455 61.0781 48.4455C62.2989 48.5779 63.9156 47.8496 64.7075 48.7765C65.4333 49.6703 64.8724 51.2262 64.9384 52.4841C64.9714 52.9807 64.9054 53.4772 64.9384 53.9738C65.0044 54.8014 64.6085 55 63.8826 55C55.733 54.9669 47.6164 54.9669 39.4668 55C38.8069 55 38.444 54.8345 38.477 54.0731C38.51 52.5172 38.51 50.9945 38.477 49.4386C38.477 48.7434 38.708 48.4124 39.4338 48.4455C39.9947 48.4786 40.5226 48.4455 41.0835 48.4455C42.4693 48.4786 43.7231 48.7103 43.8551 46.5586C43.9541 45.0358 45.5048 44.7379 46.8246 44.9034C48.2103 45.0358 48.6063 44.5724 48.5733 43.182C48.5073 32.0261 48.5403 20.9032 48.5403 9.74732C48.5403 7.13213 47.9464 6.56937 45.3398 6.56937C42.7993 6.56937 42.1394 7.23144 42.1394 9.78042C42.1394 14.1501 42.1394 18.4867 42.1394 22.8564C42.1394 27.226 40.0277 30.1723 35.9034 31.5295C35.1446 31.7943 34.8146 32.0261 34.8476 32.953C34.9466 38.5806 34.9466 44.2082 34.9136 49.8358C34.8806 53.0469 32.934 54.9669 29.7335 54.9669C22.2438 55 14.7871 55 7.2974 54.9669C3.76701 54.9669 1.06148 52.9807 0.236626 49.902C-0.588232 46.6579 0.764534 43.5461 3.96498 41.9241C4.82283 41.4937 4.85583 40.9641 4.85583 40.2358C4.85583 35.3364 4.85583 30.404 4.85583 25.5047C4.85583 22.426 5.77967 21.4991 8.91412 21.4991C12.3785 21.4991 15.8429 21.5653 19.3073 21.4991C21.419 21.466 23.3656 21.8964 25.0483 23.1543C27.4239 24.9088 29.9645 25.8688 33 25.5047C34.9796 25.2729 35.8045 24.6771 35.8045 22.6577C35.8375 18.4205 36.0354 14.1501 35.7715 9.91283C35.4085 3.88797 39.7638 -0.912059 47.3195 0.147257C52.0377 0.80933 54.9741 4.31832 54.9741 9.18455C54.9082 14.7129 54.9082 20.3074 54.9082 25.8688ZM12.3125 52.5172C13.7313 52.5172 14.9191 52.5503 16.1069 52.5172C18.1855 52.451 18.9774 51.6234 18.9774 49.5379C18.9774 44.3406 18.9774 39.1765 18.9774 33.9792C18.9774 32.0923 18.2515 30.5364 16.8657 29.3447C15.15 27.8881 13.3354 26.5309 11.6197 25.0743C10.7288 24.3129 9.73898 24.0812 8.58418 24.0481C7.62735 24.015 7.36339 24.346 7.36339 25.2729C7.39639 30.1723 7.39639 35.0716 7.36339 40.0041C7.36339 40.8647 7.56136 41.1958 8.4852 41.4275C11.7516 42.222 13.7313 44.9365 13.7313 48.3131C13.7313 49.7696 13.1374 51.0276 12.3125 52.5172ZM21.089 30.9337C21.6829 33.0192 21.6169 34.6413 21.5509 36.2302C21.353 41.4606 22.0129 46.691 21.188 51.8883C21.089 52.5503 21.452 52.5172 21.8479 52.4841C24.5864 52.4841 27.3579 52.5172 30.0965 52.4179C31.5812 52.3517 32.3731 51.3586 32.4061 49.902C32.439 44.4399 32.4061 38.9778 32.439 33.5157C32.439 32.1916 31.8451 31.7281 30.4924 31.7943C28.4137 31.8937 26.3021 31.8274 24.2235 31.8274C23.2336 31.8606 22.2438 31.8937 21.089 30.9337ZM52.3346 25.9681C52.3346 20.2412 52.3346 14.4811 52.3346 8.75421C52.3346 6.40385 51.3448 4.58315 49.3321 3.42452C44.053 0.345879 38.1801 3.72245 38.1801 9.81352C38.1801 14.0508 38.1801 18.3212 38.1801 22.5584C38.1801 26.1998 36.3654 27.9874 32.67 28.0205C30.0965 28.0205 27.4899 27.9874 24.9163 28.0536C24.1905 28.0867 22.9037 27.524 22.8707 28.6495C22.8377 29.8412 24.1245 29.3447 24.8504 29.3778C27.3909 29.444 29.8985 29.4109 32.439 29.4109C37.2232 29.4109 39.5988 26.9943 39.5988 22.1612C39.5988 17.7584 39.6318 13.3225 39.5988 8.91972C39.5988 7.09902 40.2587 5.60936 41.8094 4.74866C43.9541 3.55693 46.2637 3.59004 48.4413 4.61625C50.4869 5.57626 50.9488 7.43006 50.9488 9.5818C50.9158 20.837 50.9158 32.0923 50.9488 43.3475C50.9488 43.9103 50.5859 44.8372 51.7077 44.771C52.6975 44.7048 52.2686 43.8441 52.2686 43.3475C52.3676 37.5544 52.3346 31.7612 52.3346 25.9681ZM6.83548 52.451C9.24407 52.4841 11.2567 50.4979 11.2897 48.0813C11.2897 45.7641 9.34305 43.7448 7.03345 43.6786C4.69085 43.6123 2.57922 45.5986 2.51323 47.982C2.41425 50.3655 4.39391 52.4179 6.83548 52.451ZM51.7737 52.5172C54.9741 52.5172 58.1416 52.5172 61.342 52.5172C61.9029 52.5172 62.4638 52.5834 62.4638 51.7227C62.4638 50.7958 61.837 50.9945 61.342 50.9945C54.9741 50.9945 48.6062 50.9945 42.2054 50.9945C41.7434 50.9945 41.0506 50.6965 41.0176 51.6565C40.9846 52.6165 41.6115 52.5172 42.2384 52.5172C45.4058 52.5172 48.6063 52.5172 51.7737 52.5172ZM23.6296 25.2729C20.7591 23.2867 17.7236 24.2467 14.4572 24.1143C16.5028 25.9681 18.4825 27.226 20.1322 29.0467C20.4951 26.5971 21.089 25.935 23.6296 25.2729ZM51.6417 47.3531C50.091 47.3531 48.5733 47.3531 47.0225 47.3531C46.5936 47.3531 46.0657 47.2537 46.0987 47.9489C46.1317 48.5117 46.6266 48.4124 46.9895 48.4124C50.124 48.4124 53.2584 48.4124 56.3599 48.4124C56.7228 48.4124 57.2178 48.4786 57.2178 47.9158C57.2178 47.2206 56.6569 47.3531 56.2609 47.3531C54.7432 47.32 53.1925 47.3531 51.6417 47.3531Z" fill="white"/>
</svg>
