<svg width="30" height="30" viewBox="0 0 30 30" fill="none" xmlns="http://www.w3.org/2000/svg">
<path d="M19.2393 22.2317C19.0044 22.2317 18.7455 22.2196 18.4685 22.1895L18.2156 22.9242C18.1674 23.0687 18.1011 23.2012 18.0469 23.3397C15.6261 26.1821 11.8443 27.2058 9.52588 27.5731C9.20672 27.26 8.64668 26.5615 8.64668 26.5615L7.99631 25.604C7.99631 25.604 7.68317 25.0379 7.54466 24.7488C7.70726 24.7549 7.86985 24.7609 8.03846 24.7609C10.8628 24.7609 13.7352 23.6348 15.7345 21.7198C15.3551 21.6355 14.9758 21.5391 14.5964 21.4428C12.579 23.1229 9.77881 24.0021 7.13517 23.7492C6.99666 23.3518 6.7859 22.5388 6.7859 22.5388L6.60524 21.5211C6.60524 21.5211 6.539 20.7984 6.539 20.4371C7.06291 20.5696 7.60488 20.6419 8.15288 20.6419C8.92369 20.6419 9.70654 20.5034 10.4653 20.2444C10.0799 20.118 9.85107 20.0397 9.83903 20.0337C9.46566 19.9072 9.09833 19.7747 8.73701 19.6422C7.99631 19.7145 7.26765 19.6483 6.58717 19.4435C6.60524 19.2388 6.63535 19.04 6.66546 18.8413C6.35834 18.7148 6.05122 18.5884 5.75614 18.4619C5.0576 22.0932 6.47878 26.1339 9.19468 28.5909V28.5969H9.2007C9.31512 28.6992 9.43556 28.8016 9.55599 28.898C9.008 28.8799 8.45398 28.8076 7.90598 28.6872C7.04484 28.6029 6.17166 28.1091 6.17166 28.1091C6.17166 28.1091 5.05157 27.525 4.54573 27.1516C3.05228 24.4718 1.87198 20.4612 3.01013 17.1732V17.1672C2.69097 16.9986 2.40794 16.842 2.15501 16.6975L2.10082 16.8601C1.1915 19.4977 1.6311 22.5207 2.55848 25.074C2.30556 24.7067 2.07071 24.3273 1.87198 23.9238C0.830183 21.7981 0.679635 19.3953 1.45044 17.1612L1.70337 16.4325C1.36012 16.2157 1.08913 16.0291 0.878359 15.8604L0.54113 16.848C-0.313988 19.3291 -0.151395 21.9908 0.998798 24.3514C2.14899 26.712 4.14828 28.4764 6.63535 29.3316C7.68919 29.6929 8.76712 29.8675 9.82698 29.8675C13.9038 29.8675 17.7278 27.3082 19.1249 23.2434L19.4742 22.2317C19.3959 22.2317 19.3176 22.2317 19.2393 22.2317ZM11.0675 28.8016C10.8567 28.6691 10.652 28.5306 10.4533 28.3861C12.1274 28.0549 14.2652 27.4166 16.2103 26.1761C14.8372 27.5972 13.0246 28.5246 11.0675 28.8016Z" fill="black"/>
<path d="M29.6273 21.7559C29.3684 21.3284 28.9348 21.0273 28.435 20.9309C27.5738 20.7623 26.7067 21.2441 26.4176 22.0269L23.786 28.2476C23.6174 28.6993 23.1357 28.9702 22.6419 28.892C22.3347 28.8438 22.0698 28.6691 21.9192 28.4102C21.7747 28.1693 21.7446 27.8923 21.8349 27.6394L26.9596 14.1321C27.604 12.3015 27.8027 9.47116 26.4236 7.0142C25.2554 4.92458 23.1537 3.5034 20.3415 2.90121V2.91325C19.2876 1.85339 18.005 1.0344 16.5537 0.534577C11.5976 -1.16964 6.20193 1.3355 4.25684 6.13499C4.4676 6.24941 4.73257 6.412 5.08184 6.63482C6.08751 4.03333 8.20724 2.16653 10.7063 1.37765C12.1456 0.97418 13.5728 0.962136 13.5728 0.962136C13.5728 0.962136 14.8193 1.05849 15.4396 1.20904C11.8626 2.22675 8.82148 4.74392 7.2919 8.01987C7.55687 8.18246 7.8399 8.34505 8.13497 8.50764C9.72477 5.05104 13.2717 2.41343 17.1679 1.82328C17.6737 2.06415 18.1555 2.34719 18.6011 2.67237C14.5785 2.75066 10.6582 5.31601 9.00816 8.9894C9.28517 9.13995 9.57422 9.28448 9.87532 9.429C10.05 9.0436 10.2487 8.67024 10.4775 8.31494C11.6518 8.78465 12.6755 9.71204 13.344 10.8622C13.7655 11.0007 14.187 11.1272 14.6026 11.2416C13.9161 9.56149 12.6274 8.21257 11.0496 7.51402C11.2784 7.22497 11.7722 6.68901 11.7722 6.68901L12.537 5.99649C12.537 5.99649 13.1934 5.48462 13.5427 5.25579C15.8611 6.74321 17.5593 9.29652 18.029 11.9703C18.3723 12.0245 18.7095 12.0726 19.0287 12.1148C18.6132 9.23028 16.8849 6.44814 14.4701 4.72586C14.7591 4.58133 15.3553 4.32841 15.3553 4.32841L16.4573 3.96107C16.4573 3.96107 17.3185 3.76234 17.7581 3.70815C19.3659 5.4244 21.7024 8.5498 21.859 12.2774C21.847 12.3195 21.8349 12.3617 21.8229 12.4038C22.2384 12.44 22.5515 12.4761 22.7924 12.5183C22.8045 12.4761 22.8165 12.4279 22.8285 12.3858C22.8285 12.3858 22.8285 12.3858 22.8285 12.3798C23.4548 10.0854 23.238 7.67059 22.1842 5.51473C21.9554 5.05104 21.6904 4.61144 21.3953 4.19592C23.3043 4.8463 24.7074 5.93627 25.5746 7.47789C26.797 9.65784 26.6164 12.175 26.0443 13.7949L20.9196 27.3022C20.7329 27.8321 20.7931 28.4162 21.0822 28.898C21.3833 29.3978 21.8891 29.7411 22.4793 29.8374C23.4307 29.988 24.3581 29.458 24.6713 28.5969L27.3029 22.3822C27.4353 22.0149 27.8388 21.7981 28.2423 21.8764C28.4711 21.9185 28.6759 22.057 28.7903 22.2497C28.8987 22.4304 28.9288 22.6412 28.8625 22.8399L26.7609 29.717L27.6822 30L29.7839 23.1229C29.9345 22.6713 29.8742 22.1715 29.6273 21.7559ZM22.1661 8.92918C21.4013 6.74923 20.1066 4.92458 18.9865 3.62986C19.2395 3.63588 19.4864 3.64793 19.7393 3.67804C20.3716 4.33443 20.9075 5.0932 21.3231 5.93627C21.7867 6.88774 22.0638 7.89943 22.1661 8.92918Z" fill="black"/>
<path d="M19.2392 22.2317C16.2764 22.2317 9.91724 20.0578 9.83895 20.0337C7.30371 19.1605 4.88289 18.1428 3.0221 17.1732C0.179741 15.6858 0.101455 15.1017 0.252004 14.6681L3.1305 6.29759C3.1847 6.14101 3.30513 6.01455 3.46773 5.96036C3.84109 5.8339 4.20241 6.06875 5.41282 6.84558C7.01466 7.88136 9.70045 9.60966 13.0306 10.7538C16.3607 11.898 19.5403 12.1871 21.4433 12.3617C22.8765 12.4942 23.304 12.5303 23.5208 12.8615C23.6112 13 23.6353 13.1747 23.5811 13.3312L20.6965 21.6957C20.5641 22.0811 20.0161 22.2317 19.2392 22.2317Z" fill="#FE681B"/>
<path d="M11.429 20.2986C10.8991 20.2986 10.3631 20.2143 9.83318 20.0337C8.59266 19.6061 7.59301 18.7209 7.02093 17.5466C6.44884 16.3723 6.36454 15.0354 6.7921 13.8009C7.6713 11.2416 10.4715 9.88064 13.0308 10.7598C14.2714 11.1874 15.271 12.0726 15.8431 13.2469C16.4152 14.4272 16.4995 15.7581 16.0719 16.9926C15.3734 19.022 13.4644 20.2986 11.429 20.2986ZM11.435 11.4524C9.79705 11.4524 8.26145 12.4821 7.70141 14.1141C7.35816 15.1077 7.4244 16.1796 7.88809 17.1251C8.35178 18.0705 9.1527 18.7811 10.1523 19.1243C12.2119 19.8349 14.458 18.7389 15.1686 16.6794C15.5119 15.6858 15.4456 14.6139 14.982 13.6685C14.5183 12.723 13.7173 12.0124 12.7177 11.6692C12.2962 11.5246 11.8626 11.4524 11.435 11.4524Z" fill="black"/>
<path d="M11.7601 12.9398C11.5011 12.9398 11.2663 13.1265 11.2181 13.3854C11.1639 13.6805 11.3566 13.9635 11.6517 14.0117C11.6818 14.0177 11.7179 14.0177 11.748 14.0177C12.007 14.0177 12.2418 13.8311 12.29 13.5721C12.3442 13.277 12.1515 12.994 11.8564 12.9458C11.8263 12.9458 11.7902 12.9398 11.7601 12.9398Z" fill="black"/>
<path d="M13.8074 13.8551C13.5485 13.8551 13.3136 14.0418 13.2655 14.3008C13.2113 14.5958 13.404 14.8789 13.6991 14.927C13.7292 14.9331 13.7653 14.9331 13.7954 14.9331C14.0543 14.9331 14.2892 14.7464 14.3374 14.4874C14.3916 14.1924 14.1989 13.9093 13.9038 13.8612C13.8737 13.8551 13.8376 13.8551 13.8074 13.8551Z" fill="black"/>
<path d="M9.50764 13.0903C9.2487 13.0903 9.01384 13.277 8.96567 13.536C8.91147 13.831 9.10417 14.1141 9.39925 14.1623C9.42936 14.1683 9.46549 14.1683 9.4956 14.1683C9.75454 14.1683 9.9894 13.9816 10.0376 13.7227C10.0918 13.4276 9.89907 13.1445 9.60399 13.0964C9.57388 13.0964 9.53775 13.0903 9.50764 13.0903Z" fill="black"/>
<path d="M11.2724 18.2632C11.1339 18.2632 10.9894 18.2512 10.8509 18.2271C10.2427 18.1187 9.71274 17.7875 9.38755 17.3238C9.12259 16.9384 9.02022 16.4807 9.10452 16.0411C9.29723 15.0475 10.3812 14.4092 11.5314 14.6079C12.1396 14.7163 12.6695 15.0475 12.9947 15.5112C13.2597 15.8966 13.362 16.3542 13.2777 16.7938C13.1091 17.661 12.254 18.2632 11.2724 18.2632ZM11.1098 15.5353C10.5859 15.5353 10.1283 15.8183 10.05 16.2218C10.0078 16.4566 10.0981 16.6493 10.1825 16.7758C10.3571 17.0287 10.6642 17.2154 11.0195 17.2756C11.6398 17.384 12.242 17.0829 12.3323 16.6132C12.3744 16.3783 12.2841 16.1856 12.1998 16.0592C12.0252 15.8062 11.7181 15.6196 11.3628 15.5593C11.2784 15.5413 11.1941 15.5353 11.1098 15.5353Z" fill="black"/>
</svg>
